<svg xmlns="http://www.w3.org/2000/svg" viewBox="0 0 386 386" width="100%" height="100%">
  <!-- Icono Vectorizado -->
  <path d="M29 186.5 L29.5 186 L30.5 186 L31 185.5 L31.5 185 L32.5 185 L33 184.5 L33.5 184 L34 183.5 L34.5 183 L35 182.5 L35.5 182 L36 181.5 L36.5 181 L37 180.5 L37 179.5 L37.5 179 L38 178.5 L38 177.5 L38.5 177 L39 176.5 L39 175.5 L39 174.5 L39 173.5 L39.5 173 L40 172.5 L40 171.5 L40 170.5 L40 169.5 L40 168.5 L40 167.5 L39.5 167 L39 166.5 L39.5 166 L40 165.5 L40.5 165 L41 164.5 L41 163.5 L41.5 163 L42.5 163 L43 162.5 L43.5 162 L44 161.5 L44.5 161 L45 160.5 L45.5 160 L46 159.5 L46.5 159 L47 158.5 L47.5 158 L48 157.5 L48.5 157 L49 156.5 L49.5 156 L50 155.5 L50.5 155 L51 154.5 L51.5 154 L52 153.5 L52.5 153 L53 152.5 L53.5 152 L54 151.5 L54.5 151 L55 150.5 L55 149.5 L55.5 149 L56 148.5 L56.5 148 L57 147.5 L57.5 147 L58.5 147 L59 146.5 L59 145.5 L59.5 145 L60 144.5 L60.5 144 L61.5 144 L62 143.5 L62.5 143 L63 142.5 L63.5 142 L64 141.5 L64.5 141 L65 140.5 L65.5 140 L66 139.5 L66.5 139 L67 138.5 L67.5 138 L68 137.5 L68.5 137 L69 136.5 L69.5 136 L70 135.5 L70.5 135 L71 134.5 L71.5 134 L72 133.5 L72.5 133 L73 132.5 L73.5 132 L74 131.5 L74.5 131 L75 130.5 L75.5 130 L76 129.5 L76.5 129 L77 128.5 L77.5 128 L78 127.5 L78.5 127 L79 126.5 L79.5 126 L80 125.5 L80.5 125 L81 124.5 L81.5 124 L82 123.5 L82.5 123 L83 122.5 L83.5 122 L84 121.5 L84.5 121 L85.5 121 L86 120.5 L86.5 120 L87.5 120 L88.5 120 L89.5 120 L90.5 120 L91.5 120 L92.5 120 L93.5 120 L94.5 120 L95.5 120 L96.5 120 L97 119.5 L97.5 119 L98.5 119 L99.5 119 L100.5 119 L101.5 119 L102 118.5 L102.5 118 L103.5 118 L104.5 118 L105.5 118 L106 117.5 L106.5 117 L107.5 117 L108.5 117 L109.5 117 L110 116.5 L110.5 116 L111.5 116 L112 115.5 L112.5 115 L113.5 115 L114.5 115 L115 114.5 L115.5 114 L116.5 114 L117 113.5 L117.5 113 L118.5 113 L119 112.5 L119.5 112 L120.5 112 L121 111.5 L121.5 111 L122 110.5 L122.5 110 L123.5 110 L124 109.5 L124.5 109 L125 108.5 L125.5 108 L126.5 108 L127 107.5 L127.5 107 L128 106.5 L128.5 106 L129.5 106 L130 105.5 L130.5 105 L131 104.5 L131.5 104 L132 103.5 L132.5 103 L133 102.5 L133.5 102 L134 101.5 L134.5 101 L135 100.5 L135.5 100 L136 99.5 L136.5 99 L137 98.5 L137.5 98 L138 97.5 L138.5 97 L139 96.5 L139.5 96 L140 95.5 L140.5 95 L141 94.5 L141.5 94 L142 93.5 L142 92.5 L142.5 92 L143 91.5 L143.5 91 L144 90.5 L144 89.5 L144.5 89 L145 88.5 L145.5 88 L146 87.5 L146 86.5 L146.5 86 L147 85.5 L147.5 85 L148 84.5 L148 83.5 L148.5 83 L149 82.5 L149 81.5 L149.5 81 L150 80.5 L150 79.5 L150.5 79 L151 78.5 L151 77.5 L151 76.5 L151.5 76 L152 75.5 L152 74.5 L152.5 74 L153 73.5 L153 72.5 L153 71.5 L153.5 71 L154 70.5 L154 69.5 L154 68.5 L154 67.5 L154.5 67 L155 66.5 L155 65.5 L155 64.5 L155 63.5 L155 62.5 L155.5 62 L156 61.5 L156 60.5 L156 59.5 L156 58.5 L156 57.5 L156 56.5 L156 55.5 L156 54.5 L156 53.5 L156 52.5 L156 51.5 L156 50.5 L156 49.5 L156 48.5 L156 47.5 L156 46.5 L156 45.5 L156 44.5 L156 43.5 L156 42.5 L156 41.5 L156 40.5 L156 39.5 L156 38.5 L156 37.5 L156 36.5 L156 35.5 L156 34.5 L156 33.5 L156 32.5 L156 31.5 L156 30.5 L156 29.5 L156.5 29 L157 28.5 L156.5 28 L156 27.5 L156.5 27 L157 26.5 L156.5 26 L156 25.5 L156.5 25 L157 24.5 L156.5 24 L156 23.5 L156.5 23 L157 22.5 L157 21.5 L157 20.5 L157 19.5 L157 18.5 L157 17.5 L157 16.5 L157 15.5 L157 14.5 L157 13.5 L157 12.5 L156.5 12 L156 11.5 L156.5 11 L157 10.5 L157 9.5 L157 8.5 L156.5 8 L156 7.5 L156.5 7 L157 6.5 L157 5.5 L156.5 5 L156 4.5 L155.5 4 L154.5 4 L153.5 4 L152.5 4 L151.5 4 L150.5 4 L149.5 4 L148.5 4 L147.5 4 L146.5 4 L145.5 4 L144.5 4 L143.5 4 L142.5 4 L141.5 4 L140.5 4 L139.5 4 L138.5 4 L137.5 4 L136.5 4 L135.5 4 L134.5 4 L133.5 4 L133 4.5 L133 5.5 L133 6.5 L133 7.5 L133 8.5 L133 9.5 L133 10.5 L133 11.5 L133 12.5 L133 13.5 L133 14.5 L133 15.5 L133 16.5 L133 17.5 L133 18.5 L133 19.5 L133 20.5 L133 21.5 L133 22.5 L133 23.5 L133 24.5 L133 25.5 L133 26.5 L133 27.5 L133 28.5 L133 29.5 L133 30.5 L133 31.5 L133 32.5 L133 33.5 L133 34.5 L133 35.5 L133 36.5 L133 37.5 L133 38.5 L133 39.5 L133 40.5 L133 41.5 L133 42.5 L133 43.5 L133 44.5 L133 45.5 L133 46.5 L133 47.5 L133 48.5 L133 49.5 L133 50.5 L133 51.5 L133 52.5 L133 53.5 L133 54.5 L133 55.5 L133 56.5 L133 57.5 L132.5 58 L132 58.5 L132 59.5 L132 60.5 L132 61.5 L132 62.5 L131.5 63 L131 63.5 L131 64.5 L131 65.5 L130.5 66 L130 66.5 L130 67.5 L130 68.5 L129.5 69 L129 69.5 L129 70.5 L128.5 71 L128 71.5 L128 72.5 L127.5 73 L127 73.5 L127 74.5 L126.5 75 L126 75.5 L125.5 76 L125 76.5 L125 77.5 L124.5 78 L124 78.5 L123.5 79 L123 79.5 L122.5 80 L122 80.5 L122 81.5 L121.5 82 L121 82.5 L120.5 83 L120 83.5 L119.5 84 L119 84.5 L118.5 85 L118 85.5 L117.5 86 L116.5 86 L116 86.5 L115.5 87 L115 87.5 L114.5 88 L114 88.5 L113.5 89 L113 89.5 L112.5 90 L111.5 90 L111 90.5 L110.5 91 L110 91.5 L109.5 92 L108.5 92 L108 92.5 L107.5 93 L106.5 93 L106 93.5 L105.5 94 L104.5 94 L103.5 94 L103 94.5 L102.5 95 L101.5 95 L100.5 95 L100 95.5 L99.5 96 L98.5 96 L97.5 96 L96.5 96 L96 96.5 L95.5 97 L94.5 97 L93.5 97 L92.5 97 L91.5 97 L90.5 97 L89.5 97 L88.5 97 L88 97.5 L87.5 98 L86.5 98 L85.5 98 L84.5 98 L83.5 98 L82.5 98 L81.5 98 L80.5 98 L79.5 98 L78.5 98 L77.5 98 L76.5 98 L75.5 98 L74.5 98 L73.5 98 L72.5 98 L71.5 98 L70.5 98 L69.5 98 L68.5 98 L67.5 98 L66.5 98 L65.5 98 L64.5 98 L63.5 98 L62.5 98 L61.5 98 L60.5 98 L59.5 98 L58.5 98 L57.5 98 L56.5 98 L55.5 98 L54.5 98 L53.5 98 L53 98.5 L52.5 99 L51.5 99 L50.5 99 L49.5 99 L49 99.5 L48.5 100 L47.5 100 L46.5 100 L46 100.5 L45.5 101 L44.5 101 L43.5 101 L43 101.5 L42.5 102 L41.5 102 L41 102.5 L40.5 103 L39.5 103 L39 103.5 L38.5 104 L37.5 104 L37 104.5 L36.5 105 L36 105.5 L35.5 106 L34.5 106 L34 106.5 L33.5 107 L33 107.5 L32.5 108 L32 108.5 L31.5 109 L30.5 109 L30 109.5 L29.5 110 L29 110.5 L28.5 111 L28 111.5 L27.5 112 L26.5 112 L26 112.5 L25.5 113 L24.5 113 L24 113.5 L23.5 114 L22.5 114 L22 114.5 L21.5 115 L20.5 115 L19.5 115 L18.5 115 L17.5 115 L16.5 115 L16 115.5 L15.5 116 L14.5 116 L13.5 116 L12.5 116 L11.5 116 L10.5 116 L9.5 116 L8.5 116 L7.5 116 L6.5 116 L6 116.5 L6 117.5 L6 118.5 L6 119.5 L6 120.5 L6.5 121 L7 121.5 L6.5 122 L6 122.5 L6.5 123 L7 123.5 L6.5 124 L6 124.5 L6.5 125 L7 125.5 L7 126.5 L7 127.5 L7 128.5 L7 129.5 L7 130.5 L6.5 131 L6 131.5 L6.5 132 L7 132.5 L6.5 133 L6 133.5 L6 134.5 L6 135.5 L6 136.5 L6 137.5 L6.5 138 L7.5 138 L8.5 138 L9.5 138 L10.5 138 L11.5 138 L12.5 138 L13.5 138 L14.5 138 L15.5 138 L16.5 138 L17.5 138 L18.5 138 L19.5 138 L20.5 138 L21.5 138 L22.5 138 L23 137.5 L23.5 137 L24.5 137 L25.5 137 L26.5 137 L27.5 137 L28 136.5 L28.5 136 L29.5 136 L30.5 136 L31 135.5 L31.5 135 L32.5 135 L33 134.5 L33.5 134 L34.5 134 L35 133.5 L35.5 133 L36.5 133 L37 132.5 L37.5 132 L38.5 132 L39 131.5 L39.5 131 L40 130.5 L40.5 130 L41 129.5 L41.5 129 L42.5 129 L43 128.5 L43.5 128 L44 127.5 L44.5 127 L45 126.5 L45.5 126 L46.5 126 L47 125.5 L47.5 125 L48 124.5 L48.5 124 L49.5 124 L50 123.5 L50.5 123 L51.5 123 L52 122.5 L52.5 122 L53.5 122 L54.5 122 L55 121.5 L55.5 121 L56.5 121 L57.5 121 L58.5 121 L59.5 121 L60.5 121 L61.5 121 L62.5 121 L63.5 121 L64.5 121 L65 120.5 L65.5 120 L66.5 120 L67.5 120 L68 120.5 L68 121.5 L67.5 122 L67 122.5 L66.5 123 L66 123.5 L65.5 124 L65 124.5 L64.5 125 L64 125.5 L63.5 126 L63 126.5 L62.5 127 L62 127.5 L61.5 128 L61 128.5 L60.5 129 L60 129.5 L59.5 130 L59 130.5 L58.5 131 L58 131.5 L57.5 132 L57 132.5 L56.5 133 L56 133.5 L55.5 134 L55 134.5 L54.5 135 L54 135.5 L53.5 136 L53 136.5 L52.5 137 L52 137.5 L51.5 138 L51 138.5 L50.5 139 L50 139.5 L49.5 140 L49 140.5 L48.5 141 L48 141.5 L47.5 142 L47 142.5 L46.5 143 L46 143.5 L45.5 144 L45 144.5 L44.5 145 L44 145.5 L43.5 146 L43 146.5 L42.5 147 L42 147.5 L41.5 148 L41 148.5 L40.5 149 L40 149.5 L39.5 150 L39 150.5 L38.5 151 L38 151.5 L37.5 152 L37 152.5 L36.5 153 L36 153.5 L35.5 154 L35 154.5 L34.5 155 L34 155.5 L33.5 156 L33 156.5 L32.5 157 L31.5 157 L30.5 157 L30 156.5 L29.5 156 L28.5 156 L27.5 156 L27 155.5 L26.5 155 L25.5 155 L24.5 155 L23.5 155 L22.5 155 L21.5 155 L20.5 155 L19.5 155 L19 155.5 L18.5 156 L17.5 156 L16.5 156 L16 156.5 L15.5 157 L15 157.5 L14.5 158 L13.5 158 L13 158.5 L12.5 159 L12 159.5 L11.5 160 L11 160.5 L10.5 161 L10 161.5 L10 162.5 L9.5 163 L9 163.5 L9 164.5 L8.5 165 L8 165.5 L8 166.5 L8 167.5 L7.5 168 L7 168.5 L7 169.5 L7 170.5 L7 171.5 L7 172.5 L7 173.5 L7 174.5 L7.5 175 L8 175.5 L8 176.5 L8.5 177 L9 177.5 L9 178.5 L9.5 179 L10 179.5 L10 180.5 L10.5 181 L11 181.5 L11.5 182 L12 182.5 L12.5 183 L13 183.5 L13.5 184 L14.5 184 L15 184.5 L15.5 185 L16 185.5 L16.5 186 L17.5 186 L18.5 186 L19 186.5 L19.5 187 L20.5 187 L21.5 187 L22.5 187 L23.5 187 L24.5 187 L25.5 187 L26.5 187 L27.5 187 L28.5 187 L29 186.5 Z M25.5 177 L24.5 177 L23.5 177 L22.5 177 L21.5 177 L20.5 177 L20 176.5 L19.5 176 L19 175.5 L18.5 175 L18 174.5 L18 173.5 L17.5 173 L17 172.5 L17 171.5 L17 170.5 L17 169.5 L17.5 169 L18 168.5 L18 167.5 L18.5 167 L19 166.5 L19.5 166 L20 165.5 L20.5 165 L21.5 165 L22.5 165 L23.5 165 L24.5 165 L25.5 165 L26.5 165 L27 165.5 L27.5 166 L28 166.5 L28.5 167 L29 167.5 L29 168.5 L29 169.5 L29 170.5 L29 171.5 L29 172.5 L29 173.5 L29 174.5 L28.5 175 L28 175.5 L27.5 176 L26.5 176 L26 176.5 L25.5 177 Z M370 186.5 L370.5 186 L371.5 186 L372 185.5 L372.5 185 L373.5 185 L374 184.5 L374.5 184 L375 183.5 L375.5 183 L376 182.5 L376.5 182 L377 181.5 L377.5 181 L378 180.5 L378.5 180 L379 179.5 L379 178.5 L379.5 178 L380 177.5 L380 176.5 L380 175.5 L380 174.5 L380.5 174 L381 173.5 L381 172.5 L381 171.5 L381 170.5 L381 169.5 L380.5 169 L380 168.5 L380 167.5 L380 166.5 L380 165.5 L379.5 165 L379 164.5 L379 163.5 L378.5 163 L378 162.5 L378 161.5 L377.5 161 L377 160.5 L376.5 160 L376 159.5 L375.5 159 L375 158.5 L374.5 158 L373.5 158 L373 157.5 L372.5 157 L371.5 157 L371 156.5 L370.5 156 L369.5 156 L369 155.5 L368.5 155 L367.5 155 L366.5 155 L365.5 155 L364.5 155 L363.5 155 L362.5 155 L361.5 155 L360.5 155 L360 155.5 L359.5 156 L358.5 156 L358 156.5 L357.5 157 L356.5 157 L356 156.5 L355.5 156 L355 155.5 L354.5 155 L354 154.5 L353.5 154 L353 153.5 L352.5 153 L351.5 153 L351 152.5 L351 151.5 L350.5 151 L350 150.5 L349.5 150 L349 149.5 L348.5 149 L348 148.5 L347.5 148 L346.5 148 L346 147.5 L346 146.5 L345.5 146 L344.5 146 L344 145.5 L343.5 145 L343 144.5 L342.5 144 L342 143.5 L341.5 143 L341 142.5 L340.5 142 L340 141.5 L339.5 141 L339 140.5 L338.5 140 L338 139.5 L337.5 139 L337 138.5 L336.5 138 L336 137.5 L335.5 137 L335 136.5 L334.5 136 L334 135.5 L333.5 135 L333 134.5 L332.5 134 L332 133.5 L331.5 133 L331 132.5 L330.5 132 L330 131.5 L329.5 131 L329 130.5 L328.5 130 L328 129.5 L327.5 129 L327 128.5 L326.5 128 L326 127.5 L325.5 127 L325 126.5 L324.5 126 L324 125.5 L323.5 125 L323 124.5 L322.5 124 L322 123.5 L321.5 123 L321 122.5 L320.5 122 L320 121.5 L320 120.5 L320.5 120 L321.5 120 L322.5 120 L323.5 120 L324 120.5 L324.5 121 L325.5 121 L326.5 121 L327.5 121 L328.5 121 L329.5 121 L330.5 121 L331.5 121 L332.5 121 L333 121.5 L333.5 122 L334.5 122 L335.5 122 L336 122.5 L336.5 123 L337.5 123 L338 123.5 L338.5 124 L339.5 124 L340 124.5 L340.5 125 L341.5 125 L342 125.5 L342.5 126 L343 126.5 L343.5 127 L344 127.5 L344.5 128 L345.5 128 L346 128.5 L346.5 129 L347 129.5 L347.5 130 L348 130.5 L348.5 131 L349 131.5 L349.5 132 L350.5 132 L351 132.5 L351.5 133 L352 133.5 L352.5 134 L353.5 134 L354 134.5 L354.5 135 L355.5 135 L356 135.5 L356.5 136 L357.5 136 L358.5 136 L359 136.5 L359.5 137 L360.5 137 L361.5 137 L362.5 137 L363 137.5 L363.5 138 L364.5 138 L365.5 138 L366.5 138 L367.5 138 L368.5 138 L369.5 138 L370.5 138 L371.5 138 L372.5 138 L373.5 138 L374.5 138 L375.5 138 L376.5 138 L377.5 138 L378.5 138 L379 138.5 L379.5 139 L380 138.5 L380.5 138 L381.5 138 L382 137.5 L382 136.5 L382 135.5 L382 134.5 L382 133.5 L382 132.5 L382 131.5 L382 130.5 L382 129.5 L382 128.5 L382 127.5 L382 126.5 L382 125.5 L382 124.5 L382 123.5 L382 122.5 L382 121.5 L382 120.5 L382 119.5 L382 118.5 L382 117.5 L382 116.5 L381.5 116 L380.5 116 L379.5 116 L378.5 116 L377.5 116 L376.5 116 L375.5 116 L374.5 116 L373.5 116 L372.5 116 L371.5 116 L371 115.5 L370.5 115 L369.5 115 L368.5 115 L367.5 115 L366.5 115 L366 114.5 L365.5 114 L364.5 114 L364 113.5 L363.5 113 L362.5 113 L362 112.5 L361.5 112 L361 111.5 L360.5 111 L359.5 111 L359 110.5 L358.5 110 L358 109.5 L357.5 109 L357 108.5 L356.5 108 L356 107.5 L355.5 107 L354.5 107 L354 106.5 L353.5 106 L353 105.5 L352.5 105 L351.5 105 L351 104.5 L350.5 104 L350 103.5 L349.5 103 L348.5 103 L347.5 103 L347 102.5 L346.5 102 L346 101.5 L345.5 101 L344.5 101 L343.5 101 L343 100.5 L342.5 100 L341.5 100 L340.5 100 L340 99.5 L339.5 99 L338.5 99 L337.5 99 L336.5 99 L335.5 99 L335 98.5 L334.5 98 L333.5 98 L332.5 98 L331.5 98 L330.5 98 L329.5 98 L328.5 98 L327.5 98 L326.5 98 L325.5 98 L324.5 98 L323.5 98 L322.5 98 L321.5 98 L320.5 98 L319.5 98 L318.5 98 L317.5 98 L316.5 98 L315.5 98 L314.5 98 L313.5 98 L312.5 98 L311.5 98 L310.5 98 L309.5 98 L308.5 98 L307.5 98 L306.5 98 L305.5 98 L304.5 98 L303.5 98 L302.5 98 L301.5 98 L300.5 98 L299.5 98 L299 97.5 L298.5 97 L297.5 97 L296.5 97 L295.5 97 L294.5 97 L293.5 97 L292.5 97 L292 96.5 L291.5 96 L290.5 96 L289.5 96 L288.5 96 L288 95.5 L287.5 95 L286.5 95 L285.5 95 L285 94.5 L284.5 94 L283.5 94 L283 93.5 L282.5 93 L281.5 93 L281 92.5 L280.5 92 L279.5 92 L279 91.5 L278.5 91 L277.5 91 L277 90.5 L276.5 90 L275.5 90 L275 89.5 L274.5 89 L274 88.5 L273.5 88 L273 87.5 L272.5 87 L272 86.5 L271.5 86 L271 85.5 L270.5 85 L270 84.5 L269.5 84 L268.5 84 L268 83.5 L268 82.5 L267.5 82 L267 81.5 L266.5 81 L266 80.5 L265.5 80 L265 79.5 L264.5 79 L264 78.5 L263.5 78 L263 77.5 L263 76.5 L262.5 76 L262 75.5 L262 74.5 L261.5 74 L261 73.5 L260.5 73 L260 72.5 L260 71.5 L259.5 71 L259 70.5 L259 69.5 L259 68.5 L258.5 68 L258 67.5 L258 66.5 L257.5 66 L257 65.5 L257 64.5 L257 63.5 L256.5 63 L256 62.5 L256 61.5 L256 60.5 L256 59.5 L256 58.5 L255.5 58 L255 57.5 L255 56.5 L255 55.5 L255 54.5 L255 53.5 L255 52.5 L255 51.5 L255 50.5 L255 49.5 L255 48.5 L255 47.5 L255 46.5 L255 45.5 L255 44.5 L255 43.5 L255 42.5 L255 41.5 L255 40.5 L255 39.5 L255 38.5 L255 37.5 L255 36.5 L255 35.5 L255 34.5 L255 33.5 L255 32.5 L255 31.5 L255 30.5 L255 29.5 L255 28.5 L255 27.5 L255 26.5 L255 25.5 L255 24.5 L255 23.5 L255 22.5 L255 21.5 L255 20.5 L255 19.5 L255 18.5 L255 17.5 L255 16.5 L255 15.5 L255 14.5 L255 13.5 L255 12.5 L255 11.5 L255 10.5 L255 9.5 L255 8.5 L255 7.5 L255 6.5 L255 5.5 L255 4.5 L254.5 4 L253.5 4 L252.5 4 L251.5 4 L250.5 4 L249.5 4 L248.5 4 L247.5 4 L246.5 4 L245.5 4 L244.5 4 L243.5 4 L242.5 4 L241.5 4 L240.5 4 L239.5 4 L238.5 4 L237.5 4 L236.5 4 L235.5 4 L234.5 4 L233.5 4 L232.5 4 L232 4.5 L232 5.5 L232 6.5 L232 7.5 L232 8.5 L232 9.5 L232 10.5 L232 11.5 L232 12.5 L232 13.5 L232 14.5 L232 15.5 L232 16.5 L232 17.5 L232 18.5 L232 19.5 L232 20.5 L232 21.5 L232 22.5 L232 23.5 L232 24.5 L232 25.5 L232 26.5 L232 27.5 L232 28.5 L232 29.5 L232 30.5 L232 31.5 L232 32.5 L232 33.5 L232 34.5 L232 35.5 L232 36.5 L232 37.5 L232 38.5 L232 39.5 L232 40.5 L232 41.5 L232 42.5 L232 43.5 L232 44.5 L232 45.5 L232 46.5 L232 47.5 L232 48.5 L232 49.5 L232 50.5 L232 51.5 L232 52.5 L232 53.5 L232 54.5 L232 55.5 L232 56.5 L232 57.5 L232 58.5 L232 59.5 L232 60.5 L232.5 61 L233 61.5 L233 62.5 L233 63.5 L233 64.5 L233 65.5 L233 66.5 L233.5 67 L234 67.5 L234 68.5 L234 69.5 L234 70.5 L234.5 71 L235 71.5 L235 72.5 L235 73.5 L235.5 74 L236 74.5 L236 75.5 L236 76.5 L236.5 77 L237 77.5 L237 78.5 L237.5 79 L238 79.5 L238 80.5 L238.5 81 L239 81.5 L239 82.5 L239.5 83 L240 83.5 L240 84.5 L240.5 85 L241 85.5 L241 86.5 L241.5 87 L242 87.5 L242.5 88 L243 88.5 L243.5 89 L244 89.5 L244 90.5 L244.5 91 L245 91.5 L245.5 92 L246 92.5 L246 93.5 L246.5 94 L247 94.5 L247.5 95 L248 95.5 L248.5 96 L249 96.5 L249.5 97 L250 97.5 L250.5 98 L251 98.5 L251.5 99 L252 99.5 L252.5 100 L253 100.5 L253.5 101 L254 101.5 L254.5 102 L255 102.5 L255.5 103 L256 103.5 L256.5 104 L257 104.5 L257.5 105 L258.5 105 L259 105.5 L259.5 106 L260 106.5 L260.5 107 L261 107.5 L261.5 108 L262.5 108 L263 108.5 L263.5 109 L264 109.5 L264.5 110 L265.5 110 L266 110.5 L266.5 111 L267 111.5 L267.5 112 L268.5 112 L269 112.5 L269.5 113 L270.5 113 L271 113.5 L271.5 114 L272.5 114 L273 114.5 L273.5 115 L274.5 115 L275 115.5 L275.5 116 L276.5 116 L277.5 116 L278 116.5 L278.5 117 L279.5 117 L280.5 117 L281 117.5 L281.5 118 L282.5 118 L283.5 118 L284.5 118 L285 118.5 L285.5 119 L286.5 119 L287.5 119 L288.5 119 L289.5 119 L290 119.5 L290.5 120 L291.5 120 L292.5 120 L293.5 120 L294.5 120 L295.5 120 L296.5 120 L297.5 120 L298.5 120 L299.5 120 L300.5 120 L301.5 120 L302 120.5 L302.5 121 L303.5 121 L304 121.5 L304.5 122 L305 122.5 L305.5 123 L306 123.5 L306.5 124 L307 124.5 L307.5 125 L308 125.5 L308.5 126 L309 126.5 L309.5 127 L310 127.5 L310.5 128 L311 128.5 L311.5 129 L312 129.5 L312.5 130 L313 130.5 L313.5 131 L314 131.5 L314.5 132 L315 132.5 L315.5 133 L316 133.5 L316.5 134 L317 134.5 L317.5 135 L318 135.5 L318.5 136 L319 136.5 L319.5 137 L320.5 137 L321 137.5 L321.5 138 L322 138.5 L322.5 139 L323 139.5 L323.5 140 L324 140.5 L324.5 141 L325 141.5 L325.5 142 L326 142.5 L326.5 143 L327 143.5 L327.5 144 L328 144.5 L328.5 145 L329 145.5 L329.5 146 L330 146.5 L330.5 147 L331 147.5 L331.5 148 L332 148.5 L332.5 149 L333 149.5 L333.5 150 L334 150.5 L334.5 151 L335 151.5 L335.5 152 L336 152.5 L336.5 153 L337 153.5 L337.5 154 L338 154.5 L338.5 155 L339 155.5 L339.5 156 L340 156.5 L340.5 157 L341 157.5 L341.5 158 L342 158.5 L342.5 159 L343 159.5 L343.5 160 L344 160.5 L344.5 161 L345 161.5 L345.5 162 L346 162.5 L346.5 163 L347 163.5 L347.5 164 L348 164.5 L348 165.5 L348.5 166 L349 166.5 L348.5 167 L348 167.5 L348 168.5 L348 169.5 L348 170.5 L348 171.5 L348 172.5 L348 173.5 L348 174.5 L348.5 175 L349 175.5 L349 176.5 L349.5 177 L350 177.5 L350 178.5 L350.5 179 L351 179.5 L351 180.5 L351.5 181 L352 181.5 L352.5 182 L353 182.5 L353.5 183 L354 183.5 L354.5 184 L355 184.5 L355.5 185 L356.5 185 L357 185.5 L357.5 186 L358.5 186 L359 186.5 L359.5 187 L360.5 187 L361.5 187 L362.5 187 L363.5 187 L364.5 187 L365.5 187 L366.5 187 L367.5 187 L368.5 187 L369.5 187 L370 186.5 Z M367.5 177 L366.5 177 L365.5 177 L364.5 177 L363.5 177 L362.5 177 L361.5 177 L361 176.5 L360.5 176 L360 175.5 L359.5 175 L359 174.5 L359 173.5 L358.5 173 L358 172.5 L358 171.5 L358 170.5 L358 169.5 L358.5 169 L359 168.5 L359 167.5 L359.5 167 L360 166.5 L360.5 166 L361 165.5 L361.5 165 L362.5 165 L363.5 165 L364.5 165 L365.5 165 L366.5 165 L367.5 165 L368 165.5 L368.5 166 L369 166.5 L369.5 167 L370 167.5 L370 168.5 L370.5 169 L371 169.5 L371 170.5 L371 171.5 L371 172.5 L370.5 173 L370 173.5 L370 174.5 L369.5 175 L369 175.5 L368.5 176 L368 176.5 L367.5 177 Z M139 219.5 L139.5 219 L140 218.5 L140.5 218 L141 217.5 L141.5 217 L142 216.5 L142.5 216 L143 215.5 L143.5 215 L144 214.5 L144.5 214 L145 213.5 L145.5 213 L146 212.5 L146 211.5 L146.5 211 L147.5 211 L148 210.5 L148.5 210 L149 209.5 L149.5 209 L150 208.5 L150.5 208 L151 207.5 L151.5 207 L152 206.5 L152.5 206 L153 205.5 L153.5 205 L154 204.5 L154.5 204 L155 203.5 L155.5 203 L156 202.5 L156.5 202 L157.5 202 L158 201.5 L158.5 201 L159 200.5 L159.5 200 L160 199.5 L160.5 199 L161 198.5 L161.5 198 L162 197.5 L162.5 197 L163.5 197 L164 196.5 L164.5 196 L165 195.5 L165.5 195 L166 194.5 L166.5 194 L167 193.5 L167.5 193 L168 192.5 L168.5 192 L169.5 192 L170 191.5 L170.5 191 L171 190.5 L171.5 190 L172 189.5 L172.5 189 L173.5 189 L174 188.5 L174.5 188 L175 187.5 L175.5 187 L176 186.5 L176.5 186 L177 185.5 L177.5 185 L178.5 185 L179 184.5 L179.5 184 L180 183.5 L180.5 183 L181 182.5 L181.5 182 L182 181.5 L182.5 181 L183 180.5 L183.5 180 L184.5 180 L185 179.5 L185.5 179 L186 178.5 L186.5 178 L187 177.5 L187.5 177 L188 176.5 L188 175.5 L187.5 175 L187 174.5 L186.5 174 L186 173.5 L185.5 173 L185 172.5 L184.5 172 L184 171.5 L183.5 171 L183 170.5 L182.5 170 L182 169.5 L181.5 169 L181 168.5 L180.5 168 L180 167.5 L179.5 167 L179 166.5 L178.5 166 L178 165.5 L177.5 165 L177 164.5 L176.5 164 L176 163.5 L175.5 163 L175 162.5 L175 161.5 L174.5 161 L174 160.5 L173.5 160 L172.5 160 L172 160.5 L171.5 161 L171 161.5 L170.5 162 L170 162.5 L169.5 163 L168.5 163 L168 163.5 L167.5 164 L167 164.5 L166.5 165 L166 165.5 L165.5 166 L165 166.5 L164.5 167 L163.5 167 L163 167.5 L162.5 168 L162 168.5 L161.5 169 L161 169.5 L160.5 170 L160 170.5 L159.5 171 L158.5 171 L158 171.5 L157.5 172 L157 172.5 L156.5 173 L156 173.5 L155.5 174 L155 174.5 L154.5 175 L153.5 175 L153 175.5 L152.5 176 L152 176.5 L151.5 177 L151 177.5 L150.5 178 L149.5 178 L149 178.5 L148.5 179 L148 179.5 L147.5 180 L147 180.5 L146.5 181 L146 181.5 L145.5 182 L145 182.5 L144.5 183 L143.5 183 L143 183.5 L142.5 184 L142 184.5 L141.5 185 L141 185.5 L140.5 186 L140 186.5 L139.5 187 L139 187.5 L138.5 188 L138 188.5 L137.5 189 L137 189.5 L136.5 190 L136 190.5 L135.5 191 L135 191.5 L134.5 192 L133.5 192 L133 192.5 L133 193.5 L132.5 194 L131.5 194 L131 194.5 L131 195.5 L130.5 196 L129.5 196 L129 196.5 L128.5 197 L128 197.5 L127.5 198 L127 198.5 L126.5 199 L126 199.5 L125.5 200 L125 200.5 L124.5 201 L124 201.5 L123.5 202 L123 202.5 L123 203.5 L123.5 204 L124 204.5 L124.5 205 L125 205.5 L125.5 206 L126 206.5 L126 207.5 L126.5 208 L127 208.5 L127.5 209 L128 209.5 L128 210.5 L128.5 211 L129 211.5 L129.5 212 L130 212.5 L130.5 213 L131 213.5 L131.5 214 L132 214.5 L132.5 215 L133 215.5 L133 216.5 L133.5 217 L134 217.5 L134.5 218 L135 218.5 L135.5 219 L136 219.5 L136.5 220 L137.5 220 L138.5 220 L139 219.5 Z M208 264.5 L208.5 264 L209 263.5 L209.5 263 L210 262.5 L210.5 262 L211 261.5 L211.5 261 L212 260.5 L212.5 260 L213 259.5 L213.5 259 L214.5 259 L215 258.5 L215 257.5 L215.5 257 L216.5 257 L217 256.5 L217.5 256 L218 255.5 L218.5 255 L219 254.5 L219.5 254 L220 253.5 L220.5 253 L221 252.5 L221.5 252 L222 251.5 L222.5 251 L223 250.5 L223 249.5 L223 248.5 L222.5 248 L222 247.5 L221.5 247 L221 246.5 L220.5 246 L220 245.5 L219.5 245 L219 244.5 L218.5 244 L218 243.5 L217.5 243 L217 242.5 L216.5 242 L216 241.5 L215.5 241 L215 240.5 L214.5 240 L213.5 240 L213 239.5 L212.5 239 L212 238.5 L211.5 238 L211 237.5 L210.5 237 L210 236.5 L209.5 236 L209 235.5 L208.5 235 L208 234.5 L207.5 234 L207 233.5 L206.5 233 L206 232.5 L205.5 232 L205 231.5 L204.5 231 L203.5 231 L203 230.5 L202.5 230 L202 229.5 L201.5 229 L201 228.5 L200.5 228 L200 227.5 L199.5 227 L199 226.5 L198.5 226 L197.5 226 L197 225.5 L196.5 225 L196 224.5 L195.5 224 L195 223.5 L194.5 223 L194 222.5 L193.5 222 L193 221.5 L192.5 221 L192 220.5 L191.5 220 L191 219.5 L190.5 219 L189.5 219 L189 218.5 L188.5 218 L188 217.5 L187.5 217 L187 216.5 L186.5 216 L186 215.5 L185.5 215 L185 214.5 L184.5 214 L184 213.5 L183.5 213 L183 212.5 L182.5 212 L182 211.5 L181.5 211 L181 210.5 L180.5 210 L180 209.5 L179.5 209 L179 208.5 L178.5 208 L178 207.5 L177.5 207 L176.5 207 L176 206.5 L175.5 206 L175 205.5 L174.5 205 L174 204.5 L173.5 204 L173 203.5 L172.5 203 L172 202.5 L171.5 202 L171 201.5 L170.5 201 L169.5 201 L169 201.5 L168.5 202 L168 202.5 L167.5 203 L167 203.5 L166.5 204 L166 204.5 L165.5 205 L165 205.5 L164.5 206 L163.5 206 L163 206.5 L162.5 207 L162 207.5 L161.5 208 L161 208.5 L160.5 209 L160 209.5 L159.5 210 L159 210.5 L158.5 211 L158 211.5 L157.5 212 L157 212.5 L156.5 213 L156 213.5 L155.5 214 L155 214.5 L154.5 215 L154 215.5 L154 216.5 L154.5 217 L155 217.5 L155.5 218 L156 218.5 L156.5 219 L157 219.5 L157.5 220 L158 220.5 L158.5 221 L159 221.5 L159.5 222 L160 222.5 L160.5 223 L161 223.5 L161.5 224 L162 224.5 L162.5 225 L163 225.5 L163.5 226 L164 226.5 L164.5 227 L165 227.5 L165.5 228 L166.5 228 L167 228.5 L167.5 229 L168 229.5 L168.5 230 L169 230.5 L169.5 231 L170 231.5 L170.5 232 L171 232.5 L171.5 233 L172 233.5 L172.5 234 L173 234.5 L173.5 235 L174 235.5 L174.5 236 L175 236.5 L175.5 237 L176 237.5 L176.5 238 L177 238.5 L177.5 239 L178.5 239 L179 239.5 L179.5 240 L180 240.5 L180.5 241 L181 241.5 L181.5 242 L182 242.5 L182.5 243 L183 243.5 L183.5 244 L184 244.5 L184.5 245 L185.5 245 L186 245.5 L186.5 246 L187 246.5 L187.5 247 L188 247.5 L188.5 248 L189 248.5 L189.5 249 L190.5 249 L191 249.5 L191.5 250 L192 250.5 L192.5 251 L193 251.5 L193.5 252 L194 252.5 L194.5 253 L195 253.5 L195.5 254 L196 254.5 L196.5 255 L197 255.5 L197.5 256 L198 256.5 L198.5 257 L199 257.5 L199.5 258 L200 258.5 L200.5 259 L201.5 259 L202 259.5 L202.5 260 L203 260.5 L203.5 261 L204 261.5 L204.5 262 L205 262.5 L205.5 263 L206 263.5 L206.5 264 L207 264.5 L207.5 265 L208 264.5 Z M211 306.5 L211.5 306 L212 305.5 L212.5 305 L213 304.5 L213.5 304 L214 303.5 L214 302.5 L214.5 302 L215 301.5 L215.5 301 L216 300.5 L216.5 300 L217 299.5 L217.5 299 L218 298.5 L218.5 298 L219 297.5 L219.5 297 L220 296.5 L220 295.5 L220.5 295 L221 294.5 L221.5 294 L222 293.5 L222.5 293 L223 292.5 L223.5 292 L224 291.5 L224.5 291 L225 290.5 L225.5 290 L226 289.5 L226.5 289 L227 288.5 L227.5 288 L228 287.5 L228.5 287 L229 286.5 L229.5 286 L230 285.5 L230.5 285 L231.5 285 L232 284.5 L232.5 284 L233 283.5 L233.5 283 L234 282.5 L234.5 282 L235 281.5 L235.5 281 L236 280.5 L236.5 280 L237 279.5 L237.5 279 L238 278.5 L238.5 278 L239 277.5 L239.5 277 L240 276.5 L240.5 276 L241 275.5 L241.5 275 L242 274.5 L242.5 274 L243 273.5 L243.5 273 L244 272.5 L244.5 272 L245 271.5 L245.5 271 L246 270.5 L246.5 270 L247 269.5 L247.5 269 L248 268.5 L248.5 268 L249 267.5 L249.5 267 L250 266.5 L250.5 266 L251 265.5 L251.5 265 L252 264.5 L252.5 264 L253 263.5 L253.5 263 L254 262.5 L254.5 262 L255 261.5 L255.5 261 L256 260.5 L256 259.5 L256.5 259 L257 258.5 L257.5 258 L258 257.5 L258.5 257 L259 256.5 L259.5 256 L260 255.5 L260.5 255 L261 254.5 L261.5 254 L262 253.5 L262.5 253 L263 252.5 L263.5 252 L264 251.5 L264 250.5 L264 249.5 L263.5 249 L263 248.5 L263 247.5 L262.5 247 L262 246.5 L262 245.5 L261.5 245 L261 244.5 L261 243.5 L260.5 243 L260 242.5 L259.5 242 L259 241.5 L259 240.5 L258.5 240 L258 239.5 L257.5 239 L257 238.5 L256.5 238 L256 237.5 L255.5 237 L255 236.5 L255 235.5 L254.5 235 L254 234.5 L253.5 234 L253 233.5 L252.5 233 L252 232.5 L251.5 232 L251 232.5 L250.5 233 L250 233.5 L249.5 234 L249 234.5 L248.5 235 L248 235.5 L247.5 236 L247 236.5 L246.5 237 L246 237.5 L245.5 238 L245 238.5 L244.5 239 L244 239.5 L243.5 240 L243 240.5 L242.5 241 L242 241.5 L241.5 242 L241 242.5 L240.5 243 L240 243.5 L239.5 244 L239 244.5 L238.5 245 L238 245.5 L237.5 246 L237 246.5 L236.5 247 L236 247.5 L236 248.5 L235.5 249 L234.5 249 L234 249.5 L234 250.5 L233.5 251 L233 251.5 L232.5 252 L232 252.5 L231.5 253 L231 253.5 L230.5 254 L230 254.5 L229.5 255 L229 255.5 L228.5 256 L227.5 256 L227 256.5 L226.5 257 L226 257.5 L225.5 258 L225 258.5 L224.5 259 L224 259.5 L223.5 260 L223 260.5 L222.5 261 L222 261.5 L221.5 262 L221 262.5 L220.5 263 L220 263.5 L219.5 264 L219 264.5 L218.5 265 L218 265.5 L217.5 266 L217 266.5 L216.5 267 L216 267.5 L215.5 268 L215 268.5 L214.5 269 L214 269.5 L213.5 270 L213 270.5 L212.5 271 L212 271.5 L211.5 272 L211 272.5 L210.5 273 L210 273.5 L209.5 274 L209 274.5 L208.5 275 L208 275.5 L207.5 276 L207 276.5 L206.5 277 L206 277.5 L205.5 278 L205 278.5 L204.5 279 L204 279.5 L203.5 280 L203 280.5 L202.5 281 L202 281.5 L201.5 282 L201 282.5 L201 283.5 L200.5 284 L200 284.5 L200 285.5 L200 286.5 L200.5 287 L201 287.5 L201.5 288 L202 288.5 L202 289.5 L202.5 290 L203 290.5 L203.5 291 L204 291.5 L204 292.5 L204.5 293 L205 293.5 L205 294.5 L205.5 295 L206 295.5 L206 296.5 L206.5 297 L207 297.5 L207 298.5 L207.5 299 L208 299.5 L208 300.5 L208 301.5 L208.5 302 L209 302.5 L209 303.5 L209 304.5 L209.5 305 L210 305.5 L210 306.5 L210.5 307 L211 306.5 Z M26 341.5 L26.5 341 L27.5 341 L28.5 341 L29 340.5 L29.5 340 L30.5 340 L31 339.5 L31.5 339 L32.5 339 L33 338.5 L33.5 338 L34 337.5 L34.5 337 L35 336.5 L35.5 336 L36 335.5 L36.5 335 L37 334.5 L37 333.5 L37.5 333 L38 332.5 L38 331.5 L38.5 331 L39 330.5 L39 329.5 L39 328.5 L39 327.5 L39.5 327 L40 326.5 L40 325.5 L40 324.5 L40 323.5 L40 322.5 L40 321.5 L40.5 321 L41.5 321 L42 320.5 L42.5 320 L43 319.5 L43.5 319 L44 318.5 L44.5 318 L45 317.5 L45.5 317 L46.5 317 L47 316.5 L47.5 316 L48 315.5 L48.5 315 L49 314.5 L49.5 314 L50 313.5 L50.5 313 L51 312.5 L51.5 312 L52.5 312 L53 311.5 L53.5 311 L54 310.5 L54.5 310 L55 309.5 L55.5 309 L56 308.5 L56.5 308 L57 307.5 L57.5 307 L58 306.5 L58.5 306 L59 305.5 L59.5 305 L60 304.5 L60.5 304 L61 303.5 L61.5 303 L62 302.5 L62.5 302 L63 301.5 L63.5 301 L64 300.5 L64.5 300 L65 299.5 L65.5 299 L66 298.5 L66 297.5 L66.5 297 L67 296.5 L67.5 296 L68 295.5 L68 294.5 L68.5 294 L69 293.5 L69 292.5 L69 291.5 L69.5 291 L70 290.5 L70 289.5 L70 288.5 L70.5 288 L71 287.5 L71 286.5 L71 285.5 L71 284.5 L71 283.5 L71 282.5 L71 281.5 L71 280.5 L71 279.5 L71 278.5 L71 277.5 L71 276.5 L71 275.5 L71 274.5 L71 273.5 L71 272.5 L71 271.5 L71 270.5 L71 269.5 L71 268.5 L71 267.5 L71 266.5 L71 265.5 L71 264.5 L71 263.5 L71 262.5 L71 261.5 L71 260.5 L71 259.5 L71 258.5 L71 257.5 L71 256.5 L71 255.5 L71 254.5 L71 253.5 L71 252.5 L71 251.5 L71 250.5 L71 249.5 L71 248.5 L71 247.5 L71 246.5 L71 245.5 L71 244.5 L71 243.5 L71 242.5 L71 241.5 L71 240.5 L71 239.5 L71 238.5 L71 237.5 L71 236.5 L71 235.5 L71 234.5 L71 233.5 L71 232.5 L71 231.5 L71 230.5 L71 229.5 L71 228.5 L71 227.5 L71 226.5 L71 225.5 L71 224.5 L71.5 224 L72 223.5 L72 222.5 L72 221.5 L72 220.5 L72 219.5 L72 218.5 L72 217.5 L72 216.5 L72.5 216 L73 215.5 L73 214.5 L73 213.5 L73 212.5 L73 211.5 L73 210.5 L73 209.5 L73 208.5 L73 207.5 L73 206.5 L73 205.5 L73 204.5 L73 203.5 L73 202.5 L73 201.5 L73 200.5 L73 199.5 L73 198.5 L73 197.5 L73.5 197 L74 196.5 L74 195.5 L74 194.5 L74 193.5 L74.5 193 L75 192.5 L75 191.5 L75.5 191 L76 190.5 L76 189.5 L76.5 189 L77 188.5 L77 187.5 L77.5 187 L78 186.5 L78.5 186 L79 185.5 L79.5 185 L80 184.5 L80.5 184 L81 183.5 L81 182.5 L81.5 182 L82.5 182 L83 181.5 L83 180.5 L83.5 180 L84.5 180 L85 179.5 L85.5 179 L86 178.5 L86.5 178 L87 178.5 L87 179.5 L87 180.5 L87 181.5 L87 182.5 L87 183.5 L87 184.5 L87 185.5 L87 186.5 L87 187.5 L87 188.5 L87 189.5 L87.5 190 L88 190.5 L88 191.5 L88 192.5 L88 193.5 L88 194.5 L88 195.5 L88.5 196 L89 196.5 L89 197.5 L89 198.5 L89.5 199 L90 199.5 L90 200.5 L90 201.5 L90 202.5 L90.5 203 L91 203.5 L91 204.5 L91 205.5 L91.5 206 L92 206.5 L92 207.5 L92.5 208 L93 208.5 L93 209.5 L93 210.5 L93.5 211 L94 211.5 L94 212.5 L94.5 213 L95 213.5 L95 214.5 L95.5 215 L96 215.5 L96 216.5 L96.5 217 L97 217.5 L97.5 218 L98 218.5 L98 219.5 L98.5 220 L99 220.5 L99 221.5 L99.5 222 L100 222.5 L100.5 223 L101 223.5 L101 224.5 L101.5 225 L102 225.5 L102.5 226 L103 226.5 L103 227.5 L103.5 228 L104 228.5 L104.5 229 L105 229.5 L105.5 230 L106 230.5 L106 231.5 L106.5 232 L107 232.5 L107.5 233 L108 233.5 L108.5 234 L109 234.5 L109 235.5 L109.5 236 L110 236.5 L110.5 237 L111 237.5 L111.5 238 L112 238.5 L112.5 239 L113 239.5 L113.5 240 L114 240.5 L114.5 241 L115 241.5 L115 242.5 L115.5 243 L116 243.5 L116.5 244 L117 244.5 L117.5 245 L118 245.5 L118.5 246 L119 246.5 L119.5 247 L120 247.5 L120.5 248 L121 248.5 L121.5 249 L122 249.5 L122.5 250 L123 250.5 L123.5 251 L124 251.5 L124.5 252 L125 252.5 L125.5 253 L126 253.5 L126.5 254 L127 254.5 L127.5 255 L128 255.5 L128.5 256 L129 256.5 L129.5 257 L130 257.5 L130.5 258 L131 258.5 L131.5 259 L132 259.5 L132.5 260 L133 260.5 L133.5 261 L134 261.5 L134.5 262 L135 262.5 L135.5 263 L136 263.5 L136.5 264 L137 264.5 L137.5 265 L138 265.5 L138.5 266 L139 265.5 L139.5 265 L140 264.5 L140.5 264 L141 263.5 L141 262.5 L141.5 262 L142 261.5 L142.5 261 L143 260.5 L143.5 260 L144 259.5 L144 258.5 L144.5 258 L145 257.5 L145.5 257 L146 256.5 L146.5 256 L147 255.5 L147.5 255 L148 254.5 L148.5 254 L149 253.5 L149.5 253 L150 252.5 L150 251.5 L150.5 251 L151 250.5 L151.5 250 L152 249.5 L152.5 249 L153 248.5 L152.5 248 L152 247.5 L151.5 247 L151 246.5 L150.5 246 L150 245.5 L149.5 245 L149 244.5 L148.5 244 L148 243.5 L147.5 243 L147 242.5 L146.5 242 L146 241.5 L145.5 241 L145 240.5 L144.5 240 L144 239.5 L143.5 239 L143 238.5 L142.5 238 L142 237.5 L141.5 237 L141 236.5 L140.5 236 L140 235.5 L139.5 235 L139 234.5 L138.5 234 L138 233.5 L137.5 233 L137 232.5 L136.5 232 L136 231.5 L135.5 231 L135 230.5 L134.5 230 L134 229.5 L133.5 229 L133 228.5 L133 227.5 L132.5 227 L132 226.5 L131.5 226 L131 225.5 L130.5 225 L130 224.5 L129.5 224 L129 223.5 L128.5 223 L128 222.5 L127.5 222 L127 221.5 L127 220.5 L126.5 220 L126 219.5 L125.5 219 L125 218.5 L124.5 218 L124 217.5 L124 216.5 L123.5 216 L123 215.5 L122.5 215 L122 214.5 L121.5 214 L121 213.5 L121 212.5 L120.5 212 L120 211.5 L119.5 211 L119 210.5 L119 209.5 L118.5 209 L118 208.5 L118 207.5 L117.5 207 L117 206.5 L116.5 206 L116 205.5 L116 204.5 L115.5 204 L115 203.5 L115 202.5 L115 201.5 L114.5 201 L114 200.5 L114 199.5 L113.5 199 L113 198.5 L113 197.5 L113 196.5 L112.5 196 L112 195.5 L112 194.5 L112 193.5 L111.5 193 L111 192.5 L111 191.5 L111 190.5 L111 189.5 L111 188.5 L110.5 188 L110 187.5 L110 186.5 L110 185.5 L110 184.5 L110 183.5 L110 182.5 L110 181.5 L110 180.5 L110 179.5 L110 178.5 L110 177.5 L110 176.5 L110.5 176 L111 175.5 L111 174.5 L111 173.5 L111 172.5 L111.5 172 L112 171.5 L112 170.5 L112 169.5 L112.5 169 L113 168.5 L113 167.5 L113 166.5 L113.5 166 L114 165.5 L114.5 165 L115 164.5 L115 163.5 L115.5 163 L116 162.5 L116.5 162 L117 161.5 L117 160.5 L117.5 160 L118 159.5 L118.5 159 L119 158.5 L119.5 158 L120 157.5 L120.5 157 L121 156.5 L121.5 156 L122 155.5 L122.5 155 L123.5 155 L124 154.5 L124.5 154 L125 154.5 L125 155.5 L125 156.5 L125 157.5 L125 158.5 L125 159.5 L125 160.5 L125 161.5 L125 162.5 L125 163.5 L125.5 164 L126 164.5 L126 165.5 L126 166.5 L126 167.5 L126 168.5 L126.5 169 L127 169.5 L127 170.5 L127 171.5 L127 172.5 L127 173.5 L127.5 174 L128 174.5 L128 175.5 L128 176.5 L128.5 177 L129 177.5 L129 178.5 L129 179.5 L129.5 180 L130 180.5 L130 181.5 L130 182.5 L130.5 183 L131 183.5 L131.5 184 L132 183.5 L132.5 183 L133 182.5 L133.5 182 L134 181.5 L134.5 181 L135 180.5 L135.5 180 L136.5 180 L137 179.5 L137.5 179 L138 178.5 L138.5 178 L139 177.5 L139.5 177 L140 176.5 L140.5 176 L141 175.5 L141.5 175 L142.5 175 L143 174.5 L143.5 174 L144 173.5 L144.5 173 L145 172.5 L145.5 172 L146 171.5 L146.5 171 L147 170.5 L147.5 170 L148.5 170 L149 169.5 L149.5 169 L150 168.5 L150 167.5 L149.5 167 L149 166.5 L149 165.5 L149 164.5 L149 163.5 L149 162.5 L149 161.5 L148.5 161 L148 160.5 L148 159.5 L148 158.5 L148 157.5 L148 156.5 L148 155.5 L148 154.5 L148 153.5 L148 152.5 L148 151.5 L148 150.5 L148 149.5 L148 148.5 L148 147.5 L148.5 147 L149 146.5 L149 145.5 L149 144.5 L149 143.5 L149 142.5 L149.5 142 L150 141.5 L150 140.5 L150 139.5 L150 138.5 L150.5 138 L151 137.5 L151 136.5 L151.5 136 L152 135.5 L152 134.5 L152 133.5 L152.5 133 L153 132.5 L153 131.5 L153.5 131 L154 130.5 L154 129.5 L154.5 129 L155 128.5 L155 127.5 L155.5 127 L156 126.5 L156 125.5 L156.5 125 L157 124.5 L157.5 124 L158 123.5 L158.5 123 L159 122.5 L159 121.5 L159.5 121 L160 120.5 L160.5 120 L161 119.5 L161.5 119 L162 118.5 L162.5 118 L163 117.5 L163.5 117 L164 116.5 L164 115.5 L164.5 115 L165.5 115 L166 115.5 L166 116.5 L166 117.5 L166 118.5 L166 119.5 L166 120.5 L166.5 121 L167 121.5 L167 122.5 L167 123.5 L167 124.5 L167 125.5 L167 126.5 L167.5 127 L168 127.5 L168 128.5 L168 129.5 L168 130.5 L168 131.5 L168.5 132 L169 132.5 L169 133.5 L169 134.5 L169.5 135 L170 135.5 L170 136.5 L170 137.5 L170.5 138 L171 138.5 L171 139.5 L171.5 140 L172 140.5 L172 141.5 L172 142.5 L172.5 143 L173 143.5 L173 144.5 L173.5 145 L174 145.5 L174 146.5 L174.5 147 L175 147.5 L175 148.5 L175.5 149 L176 149.5 L176.5 150 L177 150.5 L177 151.5 L177.5 152 L178 152.5 L178 153.5 L178.5 154 L179 154.5 L179.5 155 L180 155.5 L180 156.5 L180.5 157 L181 157.5 L181.5 158 L182 158.5 L182.5 159 L183 159.5 L183.5 160 L184 160.5 L184 161.5 L184.5 162 L185 162.5 L185.5 163 L186 163.5 L186.5 164 L187 164.5 L187.5 165 L188 165.5 L188.5 166 L189 166.5 L189.5 167 L190 167.5 L190.5 168 L191 168.5 L191.5 169 L192 169.5 L192.5 170 L193 170.5 L193.5 171 L194 171.5 L194.5 172 L195 172.5 L195.5 173 L196 173.5 L196.5 174 L197 174.5 L197.5 175 L198 175.5 L198.5 176 L199.5 176 L200 176.5 L200.5 177 L201 177.5 L201.5 178 L202 178.5 L202.5 179 L203 179.5 L203.5 180 L204 180.5 L204.5 181 L205.5 181 L206 181.5 L206.5 182 L207 182.5 L207.5 183 L208 183.5 L208.5 184 L209 184.5 L209.5 185 L210 185.5 L210.5 186 L211.5 186 L212 186.5 L212.5 187 L213 187.5 L213.5 188 L214 188.5 L214.5 189 L215 189.5 L215.5 190 L216.5 190 L217.5 190 L218 189.5 L218 188.5 L218.5 188 L219 187.5 L219.5 187 L220 186.5 L220.5 186 L221 185.5 L221 184.5 L221.5 184 L222 183.5 L222.5 183 L223 182.5 L223 181.5 L223.5 181 L224 180.5 L224.5 180 L225 179.5 L225 178.5 L225.5 178 L226 177.5 L226 176.5 L226.5 176 L227 175.5 L227.5 175 L228 174.5 L228 173.5 L228.5 173 L229 172.5 L229 171.5 L229 170.5 L228.5 170 L227.5 170 L227 169.5 L226.5 169 L226 168.5 L225.5 168 L225 167.5 L224.5 167 L223.5 167 L223 166.5 L222.5 166 L222 165.5 L221.5 165 L221 164.5 L220.5 164 L220 163.5 L219.5 163 L218.5 163 L218 162.5 L217.5 162 L217 161.5 L216.5 161 L216 160.5 L215.5 160 L215 159.5 L214.5 159 L214 158.5 L213.5 158 L213 157.5 L212.5 157 L212 156.5 L211.5 156 L210.5 156 L210 155.5 L209.5 155 L209 154.5 L208.5 154 L208 153.5 L207.5 153 L207 152.5 L206.5 152 L206 151.5 L206 150.5 L205.5 150 L205 149.5 L204.5 149 L204 148.5 L203.5 148 L203 147.5 L202.5 147 L202 146.5 L201.5 146 L201 145.5 L200.5 145 L200 144.5 L200 143.5 L199.5 143 L199 142.5 L198.5 142 L198 141.5 L198 140.5 L197.5 140 L197 139.5 L196.5 139 L196 138.5 L196 137.5 L195.5 137 L195 136.5 L195 135.5 L194.5 135 L194 134.5 L194 133.5 L193.5 133 L193 132.5 L193 131.5 L192.5 131 L192 130.5 L192 129.5 L192 128.5 L191.5 128 L191 127.5 L191 126.5 L191 125.5 L191 124.5 L190.5 124 L190 123.5 L190 122.5 L190 121.5 L190 120.5 L190 119.5 L190 118.5 L190 117.5 L189.5 117 L189 116.5 L189 115.5 L189 114.5 L189 113.5 L189 112.5 L189 111.5 L189 110.5 L189 109.5 L189 108.5 L189 107.5 L189 106.5 L189 105.5 L189 104.5 L189 103.5 L189 102.5 L189 101.5 L189 100.5 L189 99.5 L189 98.5 L189 97.5 L189 96.5 L189 95.5 L189 94.5 L189 93.5 L189 92.5 L189 91.5 L189 90.5 L189 89.5 L189 88.5 L189 87.5 L189 86.5 L189 85.5 L189 84.5 L189 83.5 L189 82.5 L189 81.5 L189 80.5 L189 79.5 L189 78.5 L189 77.5 L189 76.5 L189 75.5 L189 74.5 L189 73.5 L189 72.5 L189 71.5 L189 70.5 L189 69.5 L189 68.5 L189 67.5 L189 66.5 L189 65.5 L189 64.5 L189 63.5 L189 62.5 L189 61.5 L189 60.5 L189 59.5 L189 58.5 L189 57.5 L189 56.5 L189 55.5 L189 54.5 L189 53.5 L189 52.5 L189 51.5 L189 50.5 L189 49.5 L189 48.5 L189 47.5 L189 46.5 L189 45.5 L189 44.5 L189 43.5 L189 42.5 L189 41.5 L189 40.5 L189 39.5 L189 38.5 L189 37.5 L189 36.5 L189 35.5 L189 34.5 L189 33.5 L189 32.5 L189 31.5 L189 30.5 L189 29.5 L189 28.5 L189 27.5 L189 26.5 L189 25.5 L189 24.5 L189 23.5 L189 22.5 L189 21.5 L189 20.5 L189 19.5 L189 18.5 L189 17.5 L189 16.5 L189 15.5 L189 14.5 L189 13.5 L189 12.5 L189 11.5 L189 10.5 L189 9.5 L189 8.5 L189 7.5 L189 6.5 L189 5.5 L189 4.5 L188.5 4 L187.5 4 L186.5 4 L185.5 4 L184.5 4 L183.5 4 L182.5 4 L181.5 4 L180.5 4 L179.5 4 L178.5 4 L177.5 4 L176.5 4 L175.5 4 L174.5 4 L173.5 4 L172.5 4 L171.5 4 L170.5 4 L169.5 4 L168.5 4 L167.5 4 L166.5 4 L166 4.5 L166 5.5 L166 6.5 L166 7.5 L166 8.5 L166 9.5 L166 10.5 L166 11.5 L166 12.5 L166 13.5 L166 14.5 L166 15.5 L166 16.5 L166 17.5 L166 18.5 L166 19.5 L166 20.5 L166 21.5 L166 22.5 L166 23.5 L166 24.5 L166 25.5 L166 26.5 L166 27.5 L166 28.5 L166 29.5 L166 30.5 L166 31.5 L166 32.5 L166 33.5 L166 34.5 L166 35.5 L166 36.5 L166 37.5 L166 38.5 L166 39.5 L166 40.5 L166 41.5 L166 42.5 L166 43.5 L166 44.5 L166 45.5 L166 46.5 L166 47.5 L166 48.5 L166 49.5 L166 50.5 L166 51.5 L166 52.5 L166 53.5 L166 54.5 L166 55.5 L166 56.5 L166 57.5 L166 58.5 L166 59.5 L166 60.5 L165.5 61 L165 61.5 L165 62.5 L165 63.5 L165 64.5 L165 65.5 L165 66.5 L164.5 67 L164 67.5 L164 68.5 L164 69.5 L164 70.5 L163.5 71 L163 71.5 L163 72.5 L163 73.5 L163 74.5 L162.5 75 L162 75.5 L162 76.5 L161.5 77 L161 77.5 L161 78.5 L161 79.5 L160.5 80 L160 80.5 L160 81.5 L159.5 82 L159 82.5 L159 83.5 L158.5 84 L158 84.5 L158 85.5 L157.5 86 L157 86.5 L157 87.5 L156.5 88 L156 88.5 L156 89.5 L155.5 90 L155 90.5 L155 91.5 L154.5 92 L154 92.5 L153.5 93 L153 93.5 L152.5 94 L152 94.5 L152 95.5 L151.5 96 L151 96.5 L150.5 97 L150 97.5 L149.5 98 L149 98.5 L149 99.5 L148.5 100 L148 100.5 L147.5 101 L147 101.5 L146.5 102 L146 102.5 L145.5 103 L145 103.5 L144.5 104 L144 104.5 L143.5 105 L143 105.5 L142.5 106 L142 106.5 L141.5 107 L141 107.5 L140.5 108 L140 108.5 L139.5 109 L139 109.5 L138.5 110 L138 110.5 L138 111.5 L137.5 112 L136.5 112 L136 112.5 L135.5 113 L135 113.5 L134.5 114 L134 114.5 L133.5 115 L133 115.5 L132.5 116 L132 116.5 L131.5 117 L131 117.5 L130.5 118 L130 118.5 L129.5 119 L129 119.5 L128.5 120 L128 120.5 L127.5 121 L127 121.5 L126.5 122 L126 122.5 L125.5 123 L125 123.5 L124.5 124 L124 124.5 L123.5 125 L123 125.5 L122.5 126 L121.5 126 L121 126.5 L120.5 127 L120 127.5 L119.5 128 L119 128.5 L118.5 129 L118 129.5 L117.5 130 L117 130.5 L116.5 131 L116 131.5 L115.5 132 L115 132.5 L114.5 133 L114 133.5 L113.5 134 L113 134.5 L112.5 135 L111.5 135 L111 135.5 L110.5 136 L110 136.5 L109.5 137 L109 137.5 L108.5 138 L107.5 138 L107 138.5 L106.5 139 L106 139.5 L105.5 140 L104.5 140 L104 140.5 L103.5 141 L103 141.5 L102.5 142 L102 142.5 L101.5 143 L100.5 143 L100 143.5 L99.5 144 L99 144.5 L98.5 145 L97.5 145 L97 145.5 L96.5 146 L95.5 146 L95 146.5 L94.5 147 L94 147.5 L93.5 148 L92.5 148 L92 148.5 L91.5 149 L91 149.5 L90.5 150 L89.5 150 L89 150.5 L88.5 151 L87.5 151 L87 151.5 L86.5 152 L85.5 152 L85 152.5 L84.5 153 L83.5 153 L83 153.5 L82.5 154 L81.5 154 L81 154.5 L80.5 155 L80 155.5 L79.5 156 L78.5 156 L78 156.5 L77.5 157 L76.5 157 L76 157.5 L75.5 158 L75 158.5 L74.5 159 L73.5 159 L73 159.5 L72.5 160 L72 160.5 L71.5 161 L71 161.5 L70.5 162 L70 162.5 L69.5 163 L69 163.5 L68.5 164 L67.5 164 L67 164.5 L66.5 165 L66 165.5 L65.5 166 L65 166.5 L64.5 167 L64 167.5 L63.5 168 L63 168.5 L62.5 169 L62 169.5 L62 170.5 L61.5 171 L61 171.5 L60.5 172 L60 172.5 L59.5 173 L59 173.5 L59 174.5 L58.5 175 L58 175.5 L58 176.5 L57.5 177 L57 177.5 L57 178.5 L56.5 179 L56 179.5 L55.5 180 L55 180.5 L55 181.5 L54.5 182 L54 182.5 L53.5 183 L53 183.5 L52.5 184 L52 184.5 L51.5 185 L51 185.5 L50.5 186 L50 186.5 L49.5 187 L48.5 187 L48 187.5 L47.5 188 L47 188.5 L46.5 189 L46 189.5 L45.5 190 L45 190.5 L44.5 191 L44 191.5 L43.5 192 L43 192.5 L42.5 193 L42 193.5 L41.5 194 L41 194.5 L40.5 195 L40 195.5 L39.5 196 L39 196.5 L38.5 197 L38 197.5 L37.5 198 L37 198.5 L36.5 199 L36 199.5 L35.5 200 L35 200.5 L34.5 201 L33.5 201 L33 201.5 L33 202.5 L32.5 203 L31.5 203 L31 203.5 L30.5 204 L30 204.5 L29.5 205 L29 205.5 L28.5 206 L28 206.5 L27.5 207 L27 207.5 L26.5 208 L25.5 208 L25 208.5 L24.5 209 L23.5 209 L23 209.5 L22.5 210 L21.5 210 L20.5 210 L19.5 210 L18.5 210 L17.5 210 L16.5 210 L15.5 210 L14.5 210 L13.5 210 L12.5 210 L11.5 210 L10.5 210 L9.5 210 L8.5 210 L7.5 210 L7 210.5 L6.5 211 L6 211.5 L6 212.5 L6 213.5 L6 214.5 L6 215.5 L6 216.5 L6 217.5 L6.5 218 L7 218.5 L6.5 219 L6 219.5 L6 220.5 L6 221.5 L6.5 222 L7.5 222 L8.5 222 L9.5 222 L10.5 222 L11.5 222 L12.5 222 L13.5 222 L14.5 222 L15.5 222 L16.5 222 L17.5 222 L18.5 222 L19.5 222 L20.5 222 L21.5 222 L22.5 222 L23.5 222 L24 221.5 L24.5 221 L25.5 221 L26.5 221 L27 220.5 L27.5 220 L28.5 220 L29.5 220 L30 219.5 L30.5 219 L31 218.5 L31.5 218 L32.5 218 L33 217.5 L33.5 217 L34 216.5 L34.5 216 L35 215.5 L35.5 215 L36.5 215 L37 214.5 L37.5 214 L38 213.5 L38.5 213 L39 212.5 L39.5 212 L40 211.5 L40.5 211 L41 210.5 L41.5 210 L42 209.5 L42.5 209 L43 208.5 L43.5 208 L44 207.5 L44.5 207 L45 206.5 L45.5 206 L46 205.5 L46.5 205 L47 204.5 L47.5 204 L48 203.5 L48.5 203 L49.5 203 L50 203.5 L49.5 204 L49 204.5 L49 205.5 L49 206.5 L49 207.5 L49 208.5 L49 209.5 L49 210.5 L49 211.5 L49 212.5 L49 213.5 L49 214.5 L49 215.5 L49 216.5 L49 217.5 L49 218.5 L49 219.5 L49 220.5 L48.5 221 L48 221.5 L48 222.5 L48 223.5 L48 224.5 L47.5 225 L47 225.5 L47 226.5 L46.5 227 L46 227.5 L45.5 228 L45 228.5 L45 229.5 L44.5 230 L44 230.5 L43.5 231 L43 231.5 L42.5 232 L42 232.5 L42 233.5 L41.5 234 L41 234.5 L40.5 235 L40 235.5 L39.5 236 L39 236.5 L38.5 237 L38 237.5 L37.5 238 L37 238.5 L36.5 239 L36 239.5 L35.5 240 L35 240.5 L34.5 241 L34 241.5 L33.5 242 L33 242.5 L32.5 243 L32 243.5 L31.5 244 L31 244.5 L30.5 245 L30 245.5 L29.5 246 L29 246.5 L28.5 247 L27.5 247 L26.5 247 L25.5 247 L24.5 247 L23.5 247 L22.5 247 L21.5 247 L20.5 247 L19.5 247 L18.5 247 L18 247.5 L17.5 248 L16.5 248 L15.5 248 L15 248.5 L14.5 249 L13.5 249 L12.5 249 L12 249.5 L11.5 250 L11 250.5 L10.5 251 L10 251.5 L9.5 252 L9 252.5 L8.5 253 L7.5 253 L7 253.5 L7 254.5 L6.5 255 L6 255.5 L5.5 256 L5 256.5 L4.5 257 L4 257.5 L4 258.5 L4 259.5 L3.5 260 L3 260.5 L3 261.5 L3 262.5 L2.5 263 L2 263.5 L2 264.5 L2 265.5 L2 266.5 L2 267.5 L2 268.5 L2 269.5 L2 270.5 L2 271.5 L2.5 272 L3 272.5 L3 273.5 L3 274.5 L3 275.5 L3.5 276 L4 276.5 L4 277.5 L4.5 278 L5 278.5 L5.5 279 L6 279.5 L6.5 280 L7 280.5 L7 281.5 L7.5 282 L8 282.5 L8.5 283 L9 283.5 L9.5 284 L10 284.5 L10.5 285 L11.5 285 L12 285.5 L12.5 286 L13 286.5 L13.5 287 L14.5 287 L15.5 287 L16 287.5 L16.5 288 L17.5 288 L18.5 288 L19.5 288 L20.5 288 L21.5 288 L22.5 288 L23.5 288 L24.5 288 L25.5 288 L26.5 288 L27.5 288 L28.5 288 L29 287.5 L29.5 287 L30.5 287 L31 286.5 L31.5 286 L32.5 286 L33 285.5 L33.5 285 L34 284.5 L34.5 284 L35.5 284 L36 283.5 L36.5 283 L37 282.5 L37.5 282 L38 281.5 L38.5 281 L39 280.5 L39 279.5 L39.5 279 L40 278.5 L40 277.5 L40.5 277 L41 276.5 L41 275.5 L41.5 275 L42 274.5 L42 273.5 L42 272.5 L42 271.5 L42.5 271 L43 270.5 L43 269.5 L43 268.5 L43 267.5 L43 266.5 L43 265.5 L43 264.5 L43.5 264 L44 263.5 L44.5 263 L45 262.5 L45.5 262 L46 261.5 L46.5 261 L47 260.5 L47.5 260 L48 259.5 L48.5 259 L49 258.5 L49.5 258 L50 257.5 L50.5 257 L51 256.5 L51.5 256 L52 255.5 L52.5 255 L53 254.5 L53.5 254 L54 253.5 L54.5 253 L55 252.5 L55.5 252 L56 251.5 L56.5 251 L57 250.5 L57.5 250 L58 249.5 L58.5 249 L59 248.5 L59.5 248 L60 248.5 L60 249.5 L60 250.5 L60 251.5 L60 252.5 L60 253.5 L60 254.5 L60 255.5 L60 256.5 L60 257.5 L60 258.5 L60 259.5 L60 260.5 L60 261.5 L60 262.5 L60 263.5 L60 264.5 L60 265.5 L60 266.5 L60 267.5 L60 268.5 L60 269.5 L60 270.5 L60 271.5 L60 272.5 L60 273.5 L60 274.5 L60 275.5 L60 276.5 L60 277.5 L60 278.5 L60 279.5 L60 280.5 L60 281.5 L60 282.5 L60 283.5 L59.5 284 L59 284.5 L59 285.5 L59 286.5 L59 287.5 L58.5 288 L58 288.5 L58 289.5 L57.5 290 L57 290.5 L57 291.5 L56.5 292 L56 292.5 L55.5 293 L55 293.5 L54.5 294 L54 294.5 L53.5 295 L53 295.5 L52.5 296 L52 296.5 L51.5 297 L51 297.5 L50.5 298 L50 298.5 L49.5 299 L49 299.5 L48.5 300 L48 300.5 L47.5 301 L47 301.5 L46.5 302 L46 302.5 L45.5 303 L45 303.5 L44.5 304 L43.5 304 L43 304.5 L42.5 305 L42 305.5 L41.5 306 L41 306.5 L40.5 307 L40 307.5 L39.5 308 L39 308.5 L38.5 309 L37.5 309 L37 309.5 L36.5 310 L36 310.5 L35.5 311 L35 311.5 L34.5 312 L33.5 312 L32.5 312 L32 311.5 L31.5 311 L30.5 311 L30 310.5 L29.5 310 L28.5 310 L27.5 310 L27 309.5 L26.5 309 L25.5 309 L24.5 309 L23.5 309 L22.5 309 L21.5 309 L20.5 309 L19.5 309 L19 309.5 L18.5 310 L17.5 310 L16.5 310 L16 310.5 L15.5 311 L14.5 311 L14 311.5 L13.5 312 L13 312.5 L12.5 313 L12 313.5 L11.5 314 L11 314.5 L11 315.5 L10.5 316 L10 316.5 L9.5 317 L9 317.5 L9 318.5 L8.5 319 L8 319.5 L8 320.5 L8 321.5 L8 322.5 L7.5 323 L7 323.5 L7 324.5 L7 325.5 L7 326.5 L7 327.5 L7.5 328 L8 328.5 L8 329.5 L8 330.5 L8.5 331 L9 331.5 L9 332.5 L9 333.5 L9.5 334 L10 334.5 L10.5 335 L11 335.5 L11 336.5 L11.5 337 L12 337.5 L12.5 338 L13.5 338 L14 338.5 L14.5 339 L15 339.5 L15.5 340 L16.5 340 L17 340.5 L17.5 341 L18.5 341 L19.5 341 L20.5 341 L21 341.5 L21.5 342 L22.5 342 L23.5 342 L24.5 342 L25.5 342 L26 341.5 Z M23.5 276 L22.5 276 L21.5 276 L20.5 276 L20 275.5 L19.5 275 L18.5 275 L18 274.5 L17.5 274 L17 273.5 L16.5 273 L16 272.5 L15.5 272 L15 271.5 L15 270.5 L15 269.5 L14.5 269 L14 268.5 L14 267.5 L14 266.5 L14 265.5 L14.5 265 L15 264.5 L15 263.5 L15.5 263 L16 262.5 L16.5 262 L17 261.5 L17.5 261 L18.5 261 L19 260.5 L19.5 260 L20.5 260 L21.5 260 L22.5 260 L23.5 260 L24.5 260 L25.5 260 L26 260.5 L26.5 261 L27.5 261 L28 261.5 L28 262.5 L28.5 263 L29 263.5 L29.5 264 L30 264.5 L30 265.5 L30 266.5 L30 267.5 L30 268.5 L30 269.5 L30 270.5 L29.5 271 L29 271.5 L29 272.5 L28.5 273 L28 273.5 L27.5 274 L26.5 274 L26 274.5 L25.5 275 L24.5 275 L24 275.5 L23.5 276 Z M24.5 332 L23.5 332 L22.5 332 L21.5 332 L21 331.5 L20.5 331 L20 330.5 L19.5 330 L18.5 330 L18 329.5 L18 328.5 L17.5 328 L17 327.5 L17 326.5 L17 325.5 L17 324.5 L17 323.5 L17.5 323 L18 322.5 L18 321.5 L18.5 321 L19 320.5 L19.5 320 L20.5 320 L21.5 320 L22 319.5 L22.5 319 L23.5 319 L24 319.5 L24.5 320 L25.5 320 L26.5 320 L27 320.5 L27.5 321 L28 321.5 L28.5 322 L29 322.5 L29 323.5 L29.5 324 L30 324.5 L30 325.5 L30 326.5 L29.5 327 L29 327.5 L29 328.5 L28.5 329 L28 329.5 L27.5 330 L27 330.5 L26.5 331 L25.5 331 L25 331.5 L24.5 332 Z M368 341.5 L368.5 341 L369.5 341 L370.5 341 L371 340.5 L371.5 340 L372.5 340 L373 339.5 L373.5 339 L374.5 339 L375 338.5 L375.5 338 L376 337.5 L376.5 337 L377 336.5 L377.5 336 L378 335.5 L378 334.5 L378.5 334 L379 333.5 L379 332.5 L379.5 332 L380 331.5 L380 330.5 L380 329.5 L380 328.5 L380.5 328 L381 327.5 L381 326.5 L381 325.5 L381 324.5 L380.5 324 L380 323.5 L380 322.5 L380 321.5 L380 320.5 L380 319.5 L379.5 319 L379 318.5 L378.5 318 L378 317.5 L378 316.5 L377.5 316 L377 315.5 L376.5 315 L376 314.5 L375.5 314 L375 313.5 L374.5 313 L374 312.5 L373.5 312 L373 311.5 L372.5 311 L371.5 311 L371 310.5 L370.5 310 L369.5 310 L368.5 310 L368 309.5 L367.5 309 L366.5 309 L365.5 309 L364.5 309 L363.5 309 L362.5 309 L361.5 309 L361 309.5 L360.5 310 L359.5 310 L358.5 310 L358 310.5 L357.5 311 L356.5 311 L356 311.5 L355.5 312 L354.5 312 L353.5 312 L353 311.5 L352.5 311 L352 310.5 L351.5 310 L351 309.5 L350.5 309 L349.5 309 L349 308.5 L348.5 308 L348 307.5 L347.5 307 L347 306.5 L346.5 306 L346 305.5 L345.5 305 L345 304.5 L344.5 304 L343.5 304 L343 303.5 L342.5 303 L342 302.5 L341.5 302 L341 301.5 L340.5 301 L340 300.5 L339.5 300 L339 299.5 L338.5 299 L338 298.5 L337.5 298 L337 297.5 L336.5 297 L335.5 297 L335 296.5 L334.5 296 L334 295.5 L333.5 295 L333 294.5 L332.5 294 L332 293.5 L332 292.5 L331.5 292 L331 291.5 L330.5 291 L330 290.5 L330 289.5 L329.5 289 L329 288.5 L329 287.5 L329 286.5 L328.5 286 L328 285.5 L328 284.5 L328 283.5 L328 282.5 L328 281.5 L328 280.5 L328 279.5 L328 278.5 L328 277.5 L328 276.5 L328 275.5 L328 274.5 L328 273.5 L328 272.5 L328 271.5 L328 270.5 L328 269.5 L328 268.5 L328 267.5 L328 266.5 L328 265.5 L328 264.5 L328 263.5 L328 262.5 L328 261.5 L328 260.5 L328 259.5 L328 258.5 L328 257.5 L328 256.5 L328 255.5 L328 254.5 L328 253.5 L328 252.5 L328 251.5 L328 250.5 L328 249.5 L328 248.5 L328.5 248 L329 248.5 L329.5 249 L330 249.5 L330.5 250 L331 250.5 L331.5 251 L332 251.5 L332 252.5 L332.5 253 L333 253.5 L333.5 254 L334 254.5 L334.5 255 L335.5 255 L336 255.5 L336.5 256 L337 256.5 L337 257.5 L337.5 258 L338.5 258 L339 258.5 L339.5 259 L340 259.5 L340.5 260 L341 260.5 L341.5 261 L342 261.5 L342 262.5 L342.5 263 L343.5 263 L344 263.5 L344 264.5 L344.5 265 L345 265.5 L345 266.5 L345 267.5 L345 268.5 L345 269.5 L345 270.5 L345.5 271 L346 271.5 L346 272.5 L346 273.5 L346 274.5 L346.5 275 L347 275.5 L347 276.5 L347.5 277 L348 277.5 L348 278.5 L348.5 279 L349 279.5 L349.5 280 L350 280.5 L350 281.5 L350.5 282 L351 282.5 L351.5 283 L352 283.5 L352.5 284 L353 284.5 L353.5 285 L354.5 285 L355 285.5 L355.5 286 L356 286.5 L356.5 287 L357.5 287 L358.5 287 L359 287.5 L359.5 288 L360.5 288 L361.5 288 L362.5 288 L363.5 288 L364 288.5 L364.5 289 L365.5 289 L366 288.5 L366.5 288 L367.5 288 L368.5 288 L369.5 288 L370.5 288 L371.5 288 L372 287.5 L372.5 287 L373.5 287 L374.5 287 L375 286.5 L375.5 286 L376 285.5 L376.5 285 L377.5 285 L378 284.5 L378.5 284 L379 283.5 L379.5 283 L380 282.5 L380.5 282 L381 281.5 L381.5 281 L382 280.5 L382.5 280 L383 279.5 L383 278.5 L383.5 278 L384 277.5 L384 276.5 L384.5 276 L385 275.5 L385 274.5 L385 273.5 L385 272.5 L385.5 272 L386 271.5 L386 270.5 L386 269.5 L386 268.5 L386 267.5 L386 266.5 L386 265.5 L386 264.5 L386 263.5 L385.5 263 L385 262.5 L385 261.5 L385 260.5 L384.5 260 L384 259.5 L384 258.5 L383.5 258 L383 257.5 L383 256.5 L382.5 256 L382 255.5 L381.5 255 L381 254.5 L380.5 254 L380 253.5 L379.5 253 L379 252.5 L378.5 252 L378 251.5 L377.5 251 L377 250.5 L376.5 250 L375.5 250 L375 249.5 L374.5 249 L373.5 249 L373 248.5 L372.5 248 L371.5 248 L370.5 248 L370 247.5 L369.5 247 L368.5 247 L367.5 247 L366.5 247 L365.5 247 L364.5 247 L363.5 247 L362.5 247 L361.5 247 L360.5 247 L359.5 247 L359 246.5 L358.5 246 L358 245.5 L357.5 245 L357 244.5 L356.5 244 L356 243.5 L355.5 243 L355 242.5 L354.5 242 L354 241.5 L353.5 241 L353 240.5 L352.5 240 L352 239.5 L351.5 239 L351 238.5 L350.5 238 L350 237.5 L349.5 237 L349 236.5 L348.5 236 L348 235.5 L347.5 235 L347 234.5 L346.5 234 L346 233.5 L346 232.5 L345.5 232 L345 231.5 L344.5 231 L344 230.5 L343.5 230 L343 229.5 L343 228.5 L342.5 228 L342 227.5 L341.5 227 L341 226.5 L341 225.5 L341 224.5 L340.5 224 L340 223.5 L340 222.5 L340 221.5 L339.5 221 L339 220.5 L339 219.5 L339 218.5 L339 217.5 L339 216.5 L339 215.5 L339 214.5 L339 213.5 L339 212.5 L339 211.5 L339 210.5 L339 209.5 L339 208.5 L339 207.5 L339 206.5 L339 205.5 L339 204.5 L339 203.5 L339.5 203 L340 203.5 L340.5 204 L341 204.5 L341.5 205 L342 205.5 L342.5 206 L343 206.5 L343.5 207 L344 207.5 L344.5 208 L345 208.5 L345.5 209 L346 209.5 L346.5 210 L347 210.5 L347.5 211 L348 211.5 L348.5 212 L349 212.5 L349.5 213 L350 213.5 L350.5 214 L351 214.5 L351.5 215 L352.5 215 L353 215.5 L353.5 216 L354 216.5 L354.5 217 L355.5 217 L356 217.5 L356.5 218 L357 218.5 L357.5 219 L358.5 219 L359 219.5 L359.5 220 L360.5 220 L361 220.5 L361.5 221 L362.5 221 L363.5 221 L364 221.5 L364.5 222 L365.5 222 L366.5 222 L367.5 222 L368.5 222 L369.5 222 L370.5 222 L371.5 222 L372.5 222 L373.5 222 L374.5 222 L375.5 222 L376.5 222 L377.5 222 L378.5 222 L379.5 222 L380.5 222 L381.5 222 L382 221.5 L382 220.5 L382 219.5 L382 218.5 L382 217.5 L382 216.5 L382 215.5 L382 214.5 L382 213.5 L382 212.5 L382 211.5 L381.5 211 L381 210.5 L380.5 210 L379.5 210 L378.5 210 L377.5 210 L376.5 210 L375.5 210 L374.5 210 L373.5 210 L372.5 210 L371.5 210 L370.5 210 L369.5 210 L368.5 210 L367.5 210 L366.5 210 L365.5 210 L364.5 210 L364 209.5 L363.5 209 L362.5 209 L362 208.5 L361.5 208 L361 207.5 L360.5 207 L359.5 207 L359 206.5 L358.5 206 L358 205.5 L357.5 205 L357 204.5 L356.5 204 L356 203.5 L355.5 203 L355 202.5 L354.5 202 L354 201.5 L353.5 201 L353 200.5 L352.5 200 L352 199.5 L351.5 199 L351 198.5 L350.5 198 L350 197.5 L349.5 197 L349 196.5 L348.5 196 L348 195.5 L347.5 195 L347 194.5 L346.5 194 L346 193.5 L345.5 193 L345 192.5 L344.5 192 L344 191.5 L343.5 191 L343 190.5 L342.5 190 L342 189.5 L341.5 189 L341 188.5 L340.5 188 L340 187.5 L339.5 187 L338.5 187 L338 186.5 L337.5 186 L337 185.5 L336.5 185 L336 184.5 L335.5 184 L335 183.5 L335 182.5 L334.5 182 L334 181.5 L333.5 181 L333 180.5 L332.5 180 L332 179.5 L332 178.5 L331.5 178 L331 177.5 L330.5 177 L330 176.5 L330 175.5 L329.5 175 L329 174.5 L328.5 174 L328 173.5 L328 172.5 L327.5 172 L327 171.5 L326.5 171 L326 170.5 L325.5 170 L325 169.5 L325 168.5 L324.5 168 L324 167.5 L323.5 167 L323 166.5 L322.5 166 L322 165.5 L321.5 165 L321 164.5 L320.5 164 L320 163.5 L319.5 163 L318.5 163 L318 162.5 L317.5 162 L317 161.5 L316.5 161 L316 160.5 L315.5 160 L315 159.5 L314.5 159 L313.5 159 L313 158.5 L312.5 158 L312 157.5 L311.5 157 L310.5 157 L310 156.5 L309.5 156 L309 155.5 L308.5 155 L307.5 155 L307 154.5 L306.5 154 L305.5 154 L305 153.5 L304.5 153 L303.5 153 L303 152.5 L302.5 152 L301.5 152 L301 151.5 L300.5 151 L299.5 151 L299 150.5 L298.5 150 L297.5 150 L297 149.5 L296.5 149 L296 148.5 L295.5 148 L294.5 148 L294 147.5 L293.5 147 L292.5 147 L292 146.5 L291.5 146 L291 145.5 L290.5 145 L289.5 145 L289 144.5 L288.5 144 L288 143.5 L287.5 143 L286.5 143 L286 142.5 L285.5 142 L285 141.5 L284.5 141 L283.5 141 L283 140.5 L282.5 140 L282 139.5 L281.5 139 L281 138.5 L280.5 138 L279.5 138 L279 137.5 L278.5 137 L278 136.5 L277.5 136 L277 135.5 L276.5 135 L275.5 135 L275 134.5 L274.5 134 L274 133.5 L273.5 133 L273 132.5 L272.5 132 L272 131.5 L271.5 131 L271 130.5 L270.5 130 L269.5 130 L269 129.5 L268.5 129 L268 128.5 L267.5 128 L267 127.5 L266.5 127 L266 126.5 L265.5 126 L265 125.5 L264.5 125 L264 124.5 L263.5 124 L263 123.5 L262.5 123 L262 122.5 L261.5 122 L261 121.5 L260.5 121 L260 120.5 L259.5 120 L259 119.5 L258.5 119 L258 118.5 L257.5 118 L257 117.5 L256.5 117 L256 116.5 L255.5 116 L255 115.5 L254.5 115 L254 114.5 L253.5 114 L253 113.5 L252.5 113 L252 112.5 L251.5 112 L251 111.5 L250.5 111 L250 110.5 L249.5 110 L249 109.5 L248.5 109 L248 108.5 L247.5 108 L247 107.5 L246.5 107 L246 106.5 L245.5 106 L245 105.5 L244.5 105 L244 104.5 L243.5 104 L243 103.5 L242.5 103 L242 102.5 L241.5 102 L241 101.5 L241 100.5 L240.5 100 L240 99.5 L239.5 99 L239 98.5 L238.5 98 L238 97.5 L238 96.5 L237.5 96 L237 95.5 L236.5 95 L236 94.5 L235.5 94 L235 93.5 L235 92.5 L234.5 92 L234 91.5 L233.5 91 L233 90.5 L233 89.5 L232.5 89 L232 88.5 L232 87.5 L231.5 87 L231 86.5 L230.5 86 L230 85.5 L230 84.5 L229.5 84 L229 83.5 L229 82.5 L228.5 82 L228 81.5 L228 80.5 L228 79.5 L227.5 79 L227 78.5 L227 77.5 L226.5 77 L226 76.5 L226 75.5 L226 74.5 L225.5 74 L225 73.5 L225 72.5 L225 71.5 L224.5 71 L224 70.5 L224 69.5 L224 68.5 L224 67.5 L223.5 67 L223 66.5 L223 65.5 L223 64.5 L223 63.5 L223 62.5 L223 61.5 L223 60.5 L223 59.5 L222.5 59 L222 58.5 L222 57.5 L222 56.5 L222 55.5 L222 54.5 L222 53.5 L222 52.5 L222 51.5 L222 50.5 L222 49.5 L222 48.5 L222 47.5 L222 46.5 L222 45.5 L222 44.5 L222 43.5 L222 42.5 L222 41.5 L222 40.5 L222 39.5 L222 38.5 L222 37.5 L222 36.5 L222 35.5 L222 34.5 L222 33.5 L222 32.5 L222 31.5 L222 30.5 L222 29.5 L222 28.5 L222 27.5 L222 26.5 L222 25.5 L222 24.5 L222 23.5 L222 22.5 L222 21.5 L222 20.5 L222 19.5 L222 18.5 L222 17.5 L222 16.5 L222 15.5 L222 14.5 L222 13.5 L222 12.5 L222 11.5 L222 10.5 L222 9.5 L222 8.5 L222 7.5 L222 6.5 L222 5.5 L222 4.5 L221.5 4 L220.5 4 L219.5 4 L218.5 4 L217.5 4 L216.5 4 L215.5 4 L214.5 4 L213.5 4 L212.5 4 L211.5 4 L210.5 4 L209.5 4 L208.5 4 L207.5 4 L206.5 4 L205.5 4 L204.5 4 L203.5 4 L202.5 4 L201.5 4 L200.5 4 L199.5 4 L199 4.5 L199 5.5 L199 6.5 L199 7.5 L199 8.5 L199 9.5 L199 10.5 L199 11.5 L199 12.5 L199 13.5 L199 14.5 L199 15.5 L199 16.5 L199 17.5 L199 18.5 L199 19.5 L199 20.5 L199 21.5 L199 22.5 L199 23.5 L199 24.5 L199 25.5 L199 26.5 L199 27.5 L199 28.5 L199 29.5 L199 30.5 L199 31.5 L199 32.5 L199 33.5 L199 34.5 L199 35.5 L199 36.5 L199 37.5 L199 38.5 L199 39.5 L199 40.5 L199 41.5 L199 42.5 L199 43.5 L199 44.5 L199 45.5 L199 46.5 L199 47.5 L199 48.5 L199 49.5 L199 50.5 L199 51.5 L199 52.5 L199 53.5 L199 54.5 L199 55.5 L199 56.5 L199 57.5 L199 58.5 L199 59.5 L199 60.5 L199 61.5 L199 62.5 L199 63.5 L199 64.5 L199 65.5 L199 66.5 L199 67.5 L199 68.5 L199 69.5 L199 70.5 L199 71.5 L199 72.5 L199 73.5 L199 74.5 L199 75.5 L199 76.5 L199 77.5 L199 78.5 L199 79.5 L199 80.5 L199 81.5 L199 82.5 L199 83.5 L199 84.5 L199 85.5 L199 86.5 L199 87.5 L199 88.5 L199 89.5 L199 90.5 L199 91.5 L199 92.5 L199 93.5 L199 94.5 L199 95.5 L199 96.5 L199 97.5 L199 98.5 L199 99.5 L199 100.5 L199 101.5 L199 102.5 L199 103.5 L199 104.5 L199 105.5 L199 106.5 L199 107.5 L199 108.5 L199 109.5 L199 110.5 L199 111.5 L199 112.5 L199 113.5 L199 114.5 L199 115.5 L199 116.5 L199 117.5 L199 118.5 L199 119.5 L198.5 120 L198 120.5 L198 121.5 L198 122.5 L198 123.5 L198 124.5 L198.5 125 L199 125.5 L199 126.5 L199 127.5 L199.5 128 L200 128.5 L200 129.5 L200.5 130 L201 130.5 L201 131.5 L201.5 132 L202 132.5 L202 133.5 L202.5 134 L203 134.5 L203 135.5 L203.5 136 L204 136.5 L204.5 137 L205 137.5 L205 138.5 L205.5 139 L206 139.5 L206.5 140 L207 140.5 L207.5 141 L208 141.5 L208.5 142 L209 142.5 L209.5 143 L210 143.5 L210.5 144 L211 144.5 L211 145.5 L211.5 146 L212 146.5 L212.5 147 L213 147.5 L213.5 148 L214 147.5 L214.5 147 L215 146.5 L215 145.5 L215 144.5 L215.5 144 L216 143.5 L216 142.5 L216.5 142 L217 141.5 L217 140.5 L217 139.5 L217.5 139 L218 138.5 L218 137.5 L218.5 137 L219 136.5 L219 135.5 L219 134.5 L219.5 134 L220 133.5 L220 132.5 L220 131.5 L220 130.5 L220 129.5 L220.5 129 L221 128.5 L221 127.5 L221 126.5 L221 125.5 L221 124.5 L221.5 124 L222 123.5 L222 122.5 L222 121.5 L222 120.5 L222 119.5 L222 118.5 L222 117.5 L222 116.5 L222 115.5 L222.5 115 L223 115.5 L223.5 116 L224.5 116 L225 116.5 L225 117.5 L225.5 118 L226 118.5 L226.5 119 L227 119.5 L227.5 120 L228 120.5 L228.5 121 L229 121.5 L229.5 122 L230 122.5 L230 123.5 L230.5 124 L231 124.5 L231.5 125 L232 125.5 L232 126.5 L232.5 127 L233 127.5 L233.5 128 L234 128.5 L234 129.5 L234 130.5 L234.5 131 L235 131.5 L235 132.5 L235.5 133 L236 133.5 L236 134.5 L236.5 135 L237 135.5 L237 136.5 L237 137.5 L237.5 138 L238 138.5 L238 139.5 L238 140.5 L238 141.5 L238.5 142 L239 142.5 L239 143.5 L239 144.5 L239 145.5 L239 146.5 L239 147.5 L239.5 148 L240 148.5 L240 149.5 L240 150.5 L240 151.5 L240 152.5 L240 153.5 L240 154.5 L240 155.5 L240 156.5 L240 157.5 L240 158.5 L240 159.5 L240 160.5 L239.5 161 L239 161.5 L239 162.5 L239 163.5 L239 164.5 L239 165.5 L238.5 166 L238 166.5 L238 167.5 L238 168.5 L238 169.5 L237.5 170 L237 170.5 L237 171.5 L237 172.5 L236.5 173 L236 173.5 L236 174.5 L235.5 175 L235 175.5 L235 176.5 L235 177.5 L234.5 178 L234 178.5 L234 179.5 L233.5 180 L233 180.5 L233 181.5 L232.5 182 L232 182.5 L231.5 183 L231 183.5 L231 184.5 L230.5 185 L230 185.5 L230 186.5 L229.5 187 L229 187.5 L228.5 188 L228 188.5 L227.5 189 L227 189.5 L227 190.5 L226.5 191 L226 191.5 L225.5 192 L225 192.5 L224.5 193 L224 193.5 L223.5 194 L223 194.5 L222.5 195 L222 195.5 L222 196.5 L221.5 197 L221 197.5 L220.5 198 L220 198.5 L219.5 199 L219 199.5 L218.5 200 L218 200.5 L217.5 201 L217 201.5 L216.5 202 L216 202.5 L215.5 203 L215 203.5 L214.5 204 L214 204.5 L213.5 205 L213 205.5 L212.5 206 L212 206.5 L211.5 207 L210.5 207 L210 207.5 L209.5 208 L209 208.5 L208.5 209 L208 209.5 L207.5 210 L207 210.5 L206.5 211 L206 211.5 L205.5 212 L205 212.5 L204.5 213 L204 213.5 L203.5 214 L202.5 214 L202 214.5 L201.5 215 L201 215.5 L200.5 216 L200 216.5 L200 217.5 L200.5 218 L201 218.5 L201.5 219 L202 219.5 L202.5 220 L203 220.5 L203.5 221 L204.5 221 L205 221.5 L205.5 222 L206 222.5 L206.5 223 L207 223.5 L207.5 224 L208 224.5 L208.5 225 L209.5 225 L210 225.5 L210.5 226 L211 226.5 L211.5 227 L212 227.5 L212.5 228 L213 228.5 L213.5 229 L214 229.5 L214.5 230 L215 230.5 L215.5 231 L216 231.5 L216.5 232 L217.5 232 L218.5 232 L219 231.5 L219.5 231 L220 230.5 L220.5 230 L221 229.5 L221.5 229 L222 228.5 L222.5 228 L223 227.5 L223.5 227 L224 226.5 L224.5 226 L225 225.5 L225.5 225 L226 224.5 L226.5 224 L227 223.5 L227.5 223 L228 222.5 L228.5 222 L229 221.5 L229.5 221 L230 220.5 L230.5 220 L231 219.5 L231.5 219 L232 218.5 L232.5 218 L233 217.5 L233.5 217 L234 216.5 L234.5 216 L235 215.5 L235.5 215 L236 214.5 L236.5 214 L237 213.5 L237.5 213 L238 212.5 L238.5 212 L239 211.5 L239 210.5 L239.5 210 L240 209.5 L240.5 209 L241 208.5 L241.5 208 L242 207.5 L242.5 207 L243 206.5 L243 205.5 L243.5 205 L244 204.5 L244.5 204 L245 203.5 L245.5 203 L246 202.5 L246 201.5 L246.5 201 L247 200.5 L247.5 200 L248 199.5 L248.5 199 L249 198.5 L249 197.5 L249.5 197 L250 196.5 L250.5 196 L251 195.5 L251 194.5 L251.5 194 L252 193.5 L252 192.5 L252.5 192 L253 191.5 L253 190.5 L253.5 190 L254 189.5 L254 188.5 L254.5 188 L255 187.5 L255 186.5 L255.5 186 L256 185.5 L256 184.5 L256.5 184 L257 183.5 L257 182.5 L257.5 182 L258 181.5 L258 180.5 L258 179.5 L258.5 179 L259 178.5 L259 177.5 L259 176.5 L259.5 176 L260 175.5 L260 174.5 L260 173.5 L260 172.5 L260.5 172 L261 171.5 L261 170.5 L261 169.5 L261 168.5 L261.5 168 L262 167.5 L262 166.5 L262 165.5 L262 164.5 L262 163.5 L262 162.5 L262 161.5 L262.5 161 L263 160.5 L263 159.5 L263 158.5 L263 157.5 L263 156.5 L263 155.5 L263 154.5 L263.5 154 L264.5 154 L265 154.5 L265.5 155 L266 155.5 L266.5 156 L267 156.5 L267.5 157 L268 157.5 L268.5 158 L269 158.5 L269.5 159 L270 159.5 L270.5 160 L271 160.5 L271.5 161 L272 161.5 L272 162.5 L272.5 163 L273 163.5 L273.5 164 L274 164.5 L274 165.5 L274.5 166 L275 166.5 L275 167.5 L275 168.5 L275.5 169 L276 169.5 L276 170.5 L276.5 171 L277 171.5 L277 172.5 L277 173.5 L277 174.5 L277 175.5 L277.5 176 L278 176.5 L278 177.5 L278 178.5 L278 179.5 L278 180.5 L278 181.5 L278 182.5 L278 183.5 L278 184.5 L278 185.5 L278 186.5 L278 187.5 L278 188.5 L277.5 189 L277 189.5 L277 190.5 L277 191.5 L277 192.5 L277 193.5 L276.5 194 L276 194.5 L276 195.5 L276 196.5 L275.5 197 L275 197.5 L275 198.5 L274.5 199 L274 199.5 L274 200.5 L274 201.5 L274.5 202 L275 202.5 L275.5 203 L276.5 203 L277 203.5 L277.5 204 L278 204.5 L278.5 205 L279 205.5 L279.5 206 L280 206.5 L280.5 207 L281 207.5 L281.5 208 L282 208.5 L282.5 209 L283 209.5 L283 210.5 L283.5 211 L284 211.5 L284.5 212 L285 212.5 L285.5 213 L286 213.5 L286.5 214 L287 214.5 L287 215.5 L287.5 216 L288 216.5 L288.5 217 L289 217.5 L289.5 218 L290 218.5 L290.5 219 L291 218.5 L291.5 218 L292 217.5 L292 216.5 L292.5 216 L293 215.5 L293 214.5 L293.5 214 L294 213.5 L294 212.5 L294.5 212 L295 211.5 L295 210.5 L295 209.5 L295.5 209 L296 208.5 L296 207.5 L296.5 207 L297 206.5 L297 205.5 L297 204.5 L297.5 204 L298 203.5 L298 202.5 L298 201.5 L298.5 201 L299 200.5 L299 199.5 L299 198.5 L299 197.5 L299.5 197 L300 196.5 L300 195.5 L300 194.5 L300 193.5 L300 192.5 L300.5 192 L301 191.5 L301 190.5 L301 189.5 L301 188.5 L301 187.5 L301 186.5 L301 185.5 L301 184.5 L301 183.5 L301.5 183 L302 182.5 L302 181.5 L302 180.5 L302 179.5 L302.5 179 L303 179.5 L303.5 180 L304 180.5 L304.5 181 L305 181.5 L305.5 182 L306 182.5 L306.5 183 L307 183.5 L307.5 184 L308 184.5 L308.5 185 L309 185.5 L309.5 186 L310 186.5 L310 187.5 L310.5 188 L311 188.5 L311.5 189 L312 189.5 L312 190.5 L312.5 191 L313 191.5 L313 192.5 L313 193.5 L313.5 194 L314 194.5 L314 195.5 L314 196.5 L314.5 197 L315 197.5 L315 198.5 L315 199.5 L315 200.5 L315 201.5 L315 202.5 L315 203.5 L315 204.5 L315 205.5 L315 206.5 L315 207.5 L315 208.5 L315 209.5 L315 210.5 L315 211.5 L315 212.5 L315 213.5 L315 214.5 L315 215.5 L315 216.5 L315 217.5 L315 218.5 L315.5 219 L316 219.5 L316 220.5 L316 221.5 L316 222.5 L316 223.5 L316.5 224 L317 224.5 L317 225.5 L317 226.5 L317 227.5 L317 228.5 L317 229.5 L317 230.5 L317 231.5 L317 232.5 L317 233.5 L317 234.5 L317 235.5 L317 236.5 L317 237.5 L317 238.5 L317 239.5 L317 240.5 L317 241.5 L317 242.5 L317 243.5 L317 244.5 L317 245.5 L317 246.5 L317 247.5 L317 248.5 L317 249.5 L317 250.5 L317 251.5 L317 252.5 L317 253.5 L317 254.5 L317 255.5 L317 256.5 L317 257.5 L317 258.5 L317 259.5 L317 260.5 L317 261.5 L317 262.5 L317 263.5 L317 264.5 L317 265.5 L317 266.5 L317 267.5 L317 268.5 L317 269.5 L317 270.5 L317 271.5 L317 272.5 L317 273.5 L317 274.5 L317 275.5 L317 276.5 L317 277.5 L317 278.5 L317 279.5 L317 280.5 L317 281.5 L317 282.5 L317 283.5 L317 284.5 L317 285.5 L317 286.5 L317.5 287 L318 287.5 L318 288.5 L318 289.5 L318 290.5 L318 291.5 L318.5 292 L319 292.5 L319 293.5 L319 294.5 L319.5 295 L320 295.5 L320 296.5 L320.5 297 L321 297.5 L321.5 298 L322 298.5 L322.5 299 L323 299.5 L323.5 300 L324 300.5 L324.5 301 L325 301.5 L325.5 302 L326 302.5 L326.5 303 L327 303.5 L327.5 304 L328 304.5 L328.5 305 L329 305.5 L329.5 306 L330 306.5 L330.5 307 L331 307.5 L331.5 308 L332 308.5 L332.5 309 L333 309.5 L333.5 310 L334 310.5 L334.5 311 L335.5 311 L336 311.5 L336.5 312 L337 312.5 L337.5 313 L338 313.5 L338.5 314 L339 314.5 L339.5 315 L340 315.5 L340.5 316 L341 316.5 L341.5 317 L342 317.5 L342.5 318 L343.5 318 L344 318.5 L344.5 319 L345 319.5 L345.5 320 L346 320.5 L346.5 321 L347 321.5 L347.5 322 L348 322.5 L348 323.5 L348 324.5 L348 325.5 L348 326.5 L348 327.5 L348 328.5 L348.5 329 L349 329.5 L349 330.5 L349 331.5 L349.5 332 L350 332.5 L350 333.5 L350.5 334 L351 334.5 L351.5 335 L352 335.5 L352.5 336 L353 336.5 L353.5 337 L354 337.5 L354.5 338 L355 338.5 L355.5 339 L356 339.5 L356.5 340 L357.5 340 L358 340.5 L358.5 341 L359.5 341 L360.5 341 L361 341.5 L361.5 342 L362.5 342 L363.5 342 L364.5 342 L365.5 342 L366.5 342 L367.5 342 L368 341.5 Z M366.5 276 L365.5 276 L364.5 276 L364 275.5 L363.5 275 L362.5 275 L361.5 275 L361 274.5 L360.5 274 L360 273.5 L359.5 273 L359 272.5 L359 271.5 L358.5 271 L358 270.5 L358 269.5 L358 268.5 L358 267.5 L358 266.5 L358 265.5 L358 264.5 L358.5 264 L359 263.5 L359 262.5 L359.5 262 L360 261.5 L360.5 261 L361.5 261 L362 260.5 L362.5 260 L363.5 260 L364.5 260 L365.5 260 L366.5 260 L367.5 260 L368.5 260 L369 260.5 L369.5 261 L370.5 261 L371 261.5 L371.5 262 L372 262.5 L372 263.5 L372.5 264 L373 264.5 L373 265.5 L373 266.5 L373.5 267 L374 267.5 L374 268.5 L373.5 269 L373 269.5 L373 270.5 L373 271.5 L372.5 272 L372 272.5 L371.5 273 L371 273.5 L370.5 274 L370 274.5 L369.5 275 L368.5 275 L367.5 275 L367 275.5 L366.5 276 Z M366.5 332 L365.5 332 L364.5 332 L363.5 332 L363 331.5 L362.5 331 L361.5 331 L361 330.5 L360.5 330 L360 329.5 L359.5 329 L359 328.5 L359 327.5 L358.5 327 L358 326.5 L358 325.5 L358 324.5 L358.5 324 L359 323.5 L359 322.5 L359.5 322 L360 321.5 L360.5 321 L361 320.5 L361.5 320 L362.5 320 L363 319.5 L363.5 319 L364.5 319 L365.5 319 L366 319.5 L366.5 320 L367.5 320 L368 320.5 L368.5 321 L369 321.5 L369.5 322 L370 322.5 L370 323.5 L370.5 324 L371 324.5 L371 325.5 L371 326.5 L370.5 327 L370 327.5 L370 328.5 L370 329.5 L369.5 330 L368.5 330 L368 330.5 L367.5 331 L367 331.5 L366.5 332 Z M196 368.5 L196.5 368 L197.5 368 L198.5 368 L199.5 368 L200.5 368 L201 367.5 L201.5 367 L202.5 367 L203 366.5 L203.5 366 L204.5 366 L205 365.5 L205.5 365 L206 364.5 L206.5 364 L207.5 364 L208 363.5 L208.5 363 L209 362.5 L209.5 362 L210 361.5 L210 360.5 L210.5 360 L211 359.5 L211.5 359 L212 358.5 L212 357.5 L212.5 357 L213 356.5 L213 355.5 L213 354.5 L213.5 354 L214 353.5 L214 352.5 L214 351.5 L214 350.5 L214 349.5 L214.5 349 L215 348.5 L215 347.5 L215 346.5 L215 345.5 L214.5 345 L214 344.5 L214 343.5 L214 342.5 L214 341.5 L213.5 341 L213 340.5 L213 339.5 L213 338.5 L212.5 338 L212 337.5 L212 336.5 L211.5 336 L211 335.5 L210.5 335 L210 334.5 L209.5 334 L209 333.5 L208.5 333 L208 332.5 L207.5 332 L207 331.5 L206.5 331 L206 330.5 L205.5 330 L205 329.5 L205 328.5 L205 327.5 L205 326.5 L205 325.5 L205 324.5 L205 323.5 L205 322.5 L205 321.5 L205 320.5 L205 319.5 L205 318.5 L204.5 318 L204 317.5 L204 316.5 L204 315.5 L204 314.5 L204 313.5 L203.5 313 L203 312.5 L203 311.5 L203 310.5 L203 309.5 L202.5 309 L202 308.5 L202 307.5 L202 306.5 L201.5 306 L201 305.5 L201 304.5 L201 303.5 L200.5 303 L200 302.5 L200 301.5 L199.5 301 L199 300.5 L199 299.5 L198.5 299 L198 298.5 L198 297.5 L197.5 297 L197 296.5 L197 295.5 L196.5 295 L196 294.5 L195.5 294 L195 293.5 L195 292.5 L194.5 292 L194 291.5 L194 290.5 L193.5 290 L193 289.5 L192.5 289 L192 288.5 L192 287.5 L191.5 287 L191 286.5 L190.5 286 L190 285.5 L189.5 285 L189 284.5 L188.5 284 L188 283.5 L187.5 283 L187 282.5 L187 281.5 L186.5 281 L186 280.5 L185.5 280 L185 279.5 L184.5 279 L184 278.5 L183.5 278 L183 277.5 L182.5 277 L182 276.5 L181.5 276 L181 275.5 L180.5 275 L180 275.5 L179.5 276 L179 276.5 L178.5 277 L178 277.5 L177.5 278 L177 278.5 L176.5 279 L176 279.5 L175.5 280 L175 280.5 L175 281.5 L174.5 282 L174 282.5 L173.5 283 L173 283.5 L172.5 284 L172 284.5 L172 285.5 L171.5 286 L171 286.5 L170.5 287 L170 287.5 L170 288.5 L169.5 289 L169 289.5 L168.5 290 L168 290.5 L168 291.5 L167.5 292 L167 292.5 L167 293.5 L167 294.5 L167 295.5 L167.5 296 L168 296.5 L168.5 297 L169 297.5 L169.5 298 L170 298.5 L170.5 299 L171 299.5 L171.5 300 L172 300.5 L172 301.5 L172.5 302 L173 302.5 L173.5 303 L174 303.5 L174.5 304 L175 304.5 L175 305.5 L175.5 306 L176 306.5 L176.5 307 L177 307.5 L177 308.5 L177.5 309 L178 309.5 L178 310.5 L178.5 311 L179 311.5 L179 312.5 L179 313.5 L179.5 314 L180 314.5 L180 315.5 L180.5 316 L181 316.5 L181 317.5 L181 318.5 L181 319.5 L181.5 320 L182 320.5 L182 321.5 L182 322.5 L182 323.5 L182 324.5 L182 325.5 L182.5 326 L183 326.5 L183 327.5 L183 328.5 L183 329.5 L182.5 330 L182 330.5 L181.5 331 L181 331.5 L180.5 332 L180 332.5 L179.5 333 L179 333.5 L178.5 334 L178 334.5 L177.5 335 L177 335.5 L177 336.5 L176.5 337 L176 337.5 L175.5 338 L175 338.5 L175 339.5 L175 340.5 L174.5 341 L174 341.5 L174 342.5 L174 343.5 L173.5 344 L173 344.5 L173 345.5 L173 346.5 L173 347.5 L173 348.5 L173 349.5 L173 350.5 L173.5 351 L174 351.5 L174 352.5 L174 353.5 L174 354.5 L174.5 355 L175 355.5 L175 356.5 L175.5 357 L176 357.5 L176 358.5 L176.5 359 L177 359.5 L177.5 360 L178 360.5 L178.5 361 L179 361.5 L179.5 362 L180 362.5 L180 363.5 L180.5 364 L181.5 364 L182 364.5 L182.5 365 L183 365.5 L183.5 366 L184.5 366 L185 366.5 L185.5 367 L186.5 367 L187 367.5 L187.5 368 L188.5 368 L189.5 368 L190.5 368 L191.5 368 L192 368.5 L192.5 369 L193.5 369 L194.5 369 L195.5 369 L196 368.5 Z M196.5 356 L195.5 356 L194.5 356 L193.5 356 L192.5 356 L191.5 356 L191 355.5 L190.5 355 L189.5 355 L189 354.5 L188.5 354 L188 353.5 L188 352.5 L187.5 352 L187 351.5 L187 350.5 L186.5 350 L186 349.5 L186 348.5 L186 347.5 L186 346.5 L186 345.5 L186.5 345 L187 344.5 L187 343.5 L187.5 343 L188 342.5 L188.5 342 L189 341.5 L189.5 341 L190.5 341 L191 340.5 L191.5 340 L192.5 340 L193.5 340 L194.5 340 L195.5 340 L196.5 340 L197 340.5 L197.5 341 L198.5 341 L199 341.5 L199.5 342 L200 342.5 L200.5 343 L201 343.5 L201 344.5 L201 345.5 L201.5 346 L202 346.5 L202 347.5 L202 348.5 L202 349.5 L202 350.5 L201.5 351 L201 351.5 L201 352.5 L200.5 353 L200 353.5 L199.5 354 L199 354.5 L198.5 355 L197.5 355 L197 355.5 L196.5 356 Z M90 378.5 L90 377.5 L90 376.5 L90 375.5 L90 374.5 L90 373.5 L90 372.5 L90 371.5 L90 370.5 L90 369.5 L90 368.5 L90 367.5 L90 366.5 L90 365.5 L90 364.5 L90 363.5 L90 362.5 L90 361.5 L90 360.5 L90 359.5 L90 358.5 L90 357.5 L90 356.5 L90 355.5 L90 354.5 L90 353.5 L90 352.5 L90 351.5 L90 350.5 L90 349.5 L90 348.5 L90 347.5 L90 346.5 L90 345.5 L90 344.5 L90 343.5 L90 342.5 L90 341.5 L90 340.5 L90 339.5 L90.5 339 L91 338.5 L91 337.5 L91 336.5 L91 335.5 L91.5 335 L92 334.5 L92 333.5 L92 332.5 L92.5 332 L93 331.5 L93 330.5 L93.5 330 L94 329.5 L94 328.5 L94.5 328 L95 327.5 L95.5 327 L96 326.5 L96 325.5 L96.5 325 L97 324.5 L97.5 324 L98 323.5 L98.5 323 L99 322.5 L99.5 322 L100 321.5 L100 320.5 L100.5 320 L101 319.5 L101.5 319 L102 318.5 L102.5 318 L103 317.5 L103 316.5 L103.5 316 L104 315.5 L104.5 315 L105 314.5 L105 313.5 L105.5 313 L106 312.5 L106 311.5 L106.5 311 L107 310.5 L107 309.5 L107.5 309 L108 308.5 L108 307.5 L108.5 307 L109 306.5 L109 305.5 L109 304.5 L109.5 304 L110 303.5 L110 302.5 L110 301.5 L110.5 301 L111 300.5 L111 299.5 L111 298.5 L111 297.5 L111.5 297 L112 296.5 L112 295.5 L112 294.5 L112 293.5 L112 292.5 L112 291.5 L112 290.5 L112.5 290 L113 289.5 L113 288.5 L113 287.5 L113 286.5 L113 285.5 L113 284.5 L113 283.5 L113 282.5 L113 281.5 L113 280.5 L113 279.5 L113 278.5 L113 277.5 L113 276.5 L113 275.5 L113 274.5 L113 273.5 L113 272.5 L113 271.5 L113 270.5 L113 269.5 L113 268.5 L113 267.5 L113 266.5 L113 265.5 L113 264.5 L113 263.5 L113.5 263 L114 262.5 L114 261.5 L114 260.5 L114 259.5 L114 258.5 L114.5 258 L115 257.5 L115 256.5 L115 255.5 L115 254.5 L115 253.5 L114.5 253 L114 252.5 L113.5 252 L113 251.5 L112.5 251 L112 250.5 L112 249.5 L111.5 249 L111 248.5 L110.5 248 L110 247.5 L109.5 247 L109 246.5 L108.5 246 L108 245.5 L107.5 245 L107 244.5 L106.5 244 L106 243.5 L105.5 243 L105 242.5 L105 241.5 L104.5 241 L104 240.5 L103.5 240 L103 239.5 L102.5 239 L102 238.5 L101.5 238 L101 237.5 L101 236.5 L100.5 236 L100 235.5 L99.5 235 L98.5 235 L98 235.5 L98 236.5 L97.5 237 L97 237.5 L97 238.5 L96.5 239 L96 239.5 L96 240.5 L96 241.5 L95.5 242 L95 242.5 L95 243.5 L95 244.5 L94.5 245 L94 245.5 L94 246.5 L93.5 247 L93 247.5 L93 248.5 L93 249.5 L93 250.5 L92.5 251 L92 251.5 L92 252.5 L92 253.5 L92 254.5 L92 255.5 L91.5 256 L91 256.5 L91 257.5 L91 258.5 L91 259.5 L91 260.5 L91 261.5 L91 262.5 L90.5 263 L90 263.5 L90 264.5 L90 265.5 L90 266.5 L90 267.5 L90 268.5 L90 269.5 L90 270.5 L90 271.5 L90 272.5 L90 273.5 L90 274.5 L90 275.5 L90 276.5 L90 277.5 L90 278.5 L90 279.5 L90 280.5 L90 281.5 L90 282.5 L90 283.5 L90 284.5 L90 285.5 L90 286.5 L90 287.5 L90 288.5 L90 289.5 L89.5 290 L89 290.5 L89 291.5 L89 292.5 L89 293.5 L89 294.5 L88.5 295 L88 295.5 L88 296.5 L88 297.5 L87.5 298 L87 298.5 L87 299.5 L86.5 300 L86 300.5 L86 301.5 L85.5 302 L85 302.5 L84.5 303 L84 303.5 L84 304.5 L83.5 305 L83 305.5 L82.5 306 L82 306.5 L82 307.5 L81.5 308 L81 308.5 L80.5 309 L80 309.5 L79.5 310 L79 310.5 L78.5 311 L78 311.5 L77.5 312 L77 312.5 L76.5 313 L76 313.5 L75.5 314 L75 314.5 L74.5 315 L74 315.5 L73.5 316 L73 316.5 L72.5 317 L72 317.5 L71.5 318 L71 318.5 L70.5 319 L70 319.5 L69.5 320 L69 320.5 L68.5 321 L68 321.5 L67.5 322 L67 322.5 L66.5 323 L66 323.5 L65.5 324 L65 324.5 L64.5 325 L64 325.5 L63.5 326 L63 326.5 L62.5 327 L62 327.5 L61.5 328 L61 328.5 L60.5 329 L60 329.5 L59.5 330 L59 330.5 L58.5 331 L58 331.5 L57.5 332 L57 332.5 L56.5 333 L56 333.5 L55.5 334 L55 334.5 L54.5 335 L54 335.5 L53.5 336 L53 336.5 L52.5 337 L52 337.5 L51.5 338 L51 338.5 L50.5 339 L50 339.5 L49.5 340 L49 340.5 L48.5 341 L47.5 341 L47 341.5 L46.5 342 L46 342.5 L45.5 343 L45 343.5 L44.5 344 L44 344.5 L43.5 345 L43 345.5 L42.5 346 L42 346.5 L41.5 347 L41 347.5 L40.5 348 L40 348.5 L39.5 349 L38.5 349 L38 349.5 L37.5 350 L37 350.5 L36.5 351 L36 351.5 L35.5 352 L34.5 352 L34 352.5 L33.5 353 L32.5 353 L32 353.5 L31.5 354 L30.5 354 L30 354.5 L29.5 355 L28.5 355 L27.5 355 L27 355.5 L26.5 356 L25.5 356 L24.5 356 L23.5 356 L22.5 356 L21.5 356 L20.5 356 L19.5 356 L18.5 356 L17.5 356 L16.5 356 L15.5 356 L14.5 356 L13.5 356 L12.5 356 L11.5 356 L10.5 356 L9.5 356 L8.5 356 L7.5 356 L7 356.5 L6.5 357 L6 357.5 L6 358.5 L6 359.5 L6 360.5 L6 361.5 L6 362.5 L6 363.5 L6 364.5 L6 365.5 L6 366.5 L6 367.5 L6 368.5 L6 369.5 L6 370.5 L6 371.5 L6 372.5 L6 373.5 L6 374.5 L6.5 375 L7 375.5 L7 376.5 L6.5 377 L6 377.5 L6 378.5 L6.5 379 L7.5 379 L8.5 379 L9.5 379 L10.5 379 L11.5 379 L12.5 379 L13.5 379 L14.5 379 L15.5 379 L16.5 379 L17.5 379 L18.5 379 L19.5 379 L20.5 379 L21.5 379 L22.5 379 L23.5 379 L24.5 379 L25.5 379 L26.5 379 L27.5 379 L28 378.5 L28.5 378 L29.5 378 L30.5 378 L31.5 378 L32.5 378 L33 377.5 L33.5 377 L34.5 377 L35.5 377 L36 376.5 L36.5 376 L37.5 376 L38.5 376 L39 375.5 L39.5 375 L40.5 375 L41 374.5 L41.5 374 L42.5 374 L43.5 374 L44 373.5 L44.5 373 L45 372.5 L45.5 372 L46.5 372 L47 371.5 L47.5 371 L48.5 371 L49 370.5 L49.5 370 L50 369.5 L50.5 369 L51 368.5 L51.5 368 L52.5 368 L53 367.5 L53.5 367 L54 366.5 L54.5 366 L55 365.5 L55.5 365 L56 364.5 L56.5 364 L57 363.5 L57.5 363 L58 362.5 L58.5 362 L59 361.5 L59.5 361 L60 360.5 L60.5 360 L61 359.5 L61.5 359 L62 358.5 L62.5 358 L63 357.5 L63.5 357 L64.5 357 L65 356.5 L65.5 356 L66 355.5 L66.5 355 L67 354.5 L67.5 354 L68 353.5 L68.5 353 L69 352.5 L69.5 352 L70 351.5 L70.5 351 L71 350.5 L71.5 350 L72 349.5 L72.5 349 L73 348.5 L73.5 348 L74 347.5 L74.5 347 L75 346.5 L75.5 346 L76 345.5 L76.5 345 L77 344.5 L77.5 344 L78 344.5 L78 345.5 L78 346.5 L78 347.5 L78 348.5 L78 349.5 L78 350.5 L78 351.5 L78 352.5 L78 353.5 L78 354.5 L78 355.5 L78 356.5 L78 357.5 L78 358.5 L78 359.5 L78 360.5 L78 361.5 L78 362.5 L78 363.5 L78 364.5 L78 365.5 L78 366.5 L78 367.5 L78 368.5 L78 369.5 L78 370.5 L78 371.5 L78 372.5 L78 373.5 L78 374.5 L78 375.5 L78 376.5 L78 377.5 L78 378.5 L78.5 379 L79.5 379 L80.5 379 L81.5 379 L82.5 379 L83.5 379 L84.5 379 L85.5 379 L86.5 379 L87.5 379 L88.5 379 L89.5 379 L90 378.5 Z M382 378.5 L382 377.5 L382 376.5 L382 375.5 L382 374.5 L382 373.5 L382 372.5 L382 371.5 L382 370.5 L382 369.5 L382 368.5 L382 367.5 L382 366.5 L382 365.5 L382 364.5 L382 363.5 L382 362.5 L382 361.5 L382 360.5 L382 359.5 L382 358.5 L382 357.5 L381.5 357 L381 356.5 L380.5 356 L379.5 356 L378.5 356 L377.5 356 L376.5 356 L376 356.5 L375.5 357 L375 356.5 L374.5 356 L373.5 356 L372.5 356 L371.5 356 L370.5 356 L369.5 356 L368.5 356 L367.5 356 L366.5 356 L365.5 356 L364.5 356 L363.5 356 L362.5 356 L362 355.5 L361.5 355 L360.5 355 L359.5 355 L358.5 355 L358 354.5 L357.5 354 L356.5 354 L356 353.5 L355.5 353 L354.5 353 L354 352.5 L353.5 352 L352.5 352 L352 351.5 L351.5 351 L351 350.5 L350.5 350 L349.5 350 L349 349.5 L348.5 349 L348 348.5 L347.5 348 L347 347.5 L346.5 347 L346 346.5 L345.5 346 L345 345.5 L344.5 345 L344 344.5 L343.5 344 L343 343.5 L342.5 343 L342 342.5 L341.5 342 L341 341.5 L340.5 341 L340 340.5 L339.5 340 L338.5 340 L338 339.5 L337.5 339 L337 338.5 L336.5 338 L336 337.5 L335.5 337 L335 336.5 L334.5 336 L334 335.5 L333.5 335 L333 334.5 L332.5 334 L332 333.5 L331.5 333 L331 332.5 L330.5 332 L330 331.5 L329.5 331 L329 330.5 L328.5 330 L328 329.5 L327.5 329 L327 328.5 L326.5 328 L326 327.5 L325.5 327 L325 326.5 L324.5 326 L324 325.5 L323.5 325 L323 324.5 L322.5 324 L322 323.5 L321.5 323 L321 322.5 L320.5 322 L320 321.5 L319.5 321 L319 320.5 L318.5 320 L318 319.5 L317.5 319 L317 318.5 L316.5 318 L316 317.5 L315.5 317 L315 316.5 L314.5 316 L314 315.5 L313.5 315 L313 314.5 L312.5 314 L312 313.5 L311.5 313 L311 312.5 L310.5 312 L310 311.5 L309.5 311 L309 310.5 L308.5 310 L308 309.5 L307.5 309 L307 308.5 L306.5 308 L306 307.5 L305.5 307 L305 306.5 L305 305.5 L304.5 305 L304 304.5 L303.5 304 L303 303.5 L303 302.5 L302.5 302 L302 301.5 L302 300.5 L301.5 300 L301 299.5 L301 298.5 L300.5 298 L300 297.5 L300 296.5 L300 295.5 L299.5 295 L299 294.5 L299 293.5 L299 292.5 L299 291.5 L299 290.5 L299 289.5 L298.5 289 L298 288.5 L298 287.5 L298 286.5 L298 285.5 L298 284.5 L298 283.5 L298 282.5 L298 281.5 L298 280.5 L298 279.5 L298 278.5 L298 277.5 L298 276.5 L298 275.5 L298 274.5 L298 273.5 L298 272.5 L298 271.5 L298 270.5 L298 269.5 L298 268.5 L298 267.5 L298 266.5 L298 265.5 L298 264.5 L298 263.5 L298 262.5 L298 261.5 L298 260.5 L298 259.5 L297.5 259 L297 258.5 L297 257.5 L297 256.5 L297 255.5 L297 254.5 L297 253.5 L296.5 253 L296 252.5 L296 251.5 L296 250.5 L296 249.5 L295.5 249 L295 248.5 L295 247.5 L295 246.5 L294.5 246 L294 245.5 L294 244.5 L294 243.5 L294 242.5 L293.5 242 L293 241.5 L293 240.5 L292.5 240 L292 239.5 L292 238.5 L292 237.5 L291.5 237 L291 236.5 L291 235.5 L290.5 235 L290 234.5 L290 233.5 L289.5 233 L289 232.5 L289 231.5 L288.5 231 L288 230.5 L288 229.5 L287.5 229 L287 228.5 L286.5 228 L286 227.5 L286 226.5 L285.5 226 L285 225.5 L284.5 225 L284 224.5 L284 223.5 L283.5 223 L283 222.5 L282.5 222 L282 221.5 L282 220.5 L281.5 220 L281 219.5 L280.5 219 L280 218.5 L279.5 218 L279 217.5 L278.5 217 L278 216.5 L278 215.5 L277.5 215 L277 214.5 L276.5 214 L276 213.5 L275.5 213 L275 212.5 L274.5 212 L274 211.5 L273.5 211 L273 210.5 L272.5 210 L272 209.5 L271.5 209 L271 208.5 L270.5 208 L270 207.5 L269.5 207 L269 206.5 L268.5 206 L268 205.5 L267.5 205 L267 204.5 L266.5 204 L266 203.5 L265.5 203 L265 202.5 L264.5 202 L264 201.5 L263.5 201 L263 200.5 L262.5 200 L262 199.5 L261.5 199 L261 198.5 L260.5 198 L259.5 198 L258.5 198 L258 198.5 L257.5 199 L257 199.5 L257 200.5 L256.5 201 L256 201.5 L255.5 202 L255 202.5 L255 203.5 L254.5 204 L254 204.5 L253.5 205 L253 205.5 L252.5 206 L252 206.5 L251.5 207 L251 207.5 L251 208.5 L250.5 209 L250 209.5 L249.5 210 L249 210.5 L248.5 211 L248 211.5 L248 212.5 L247.5 213 L247 213.5 L246.5 214 L246 214.5 L245.5 215 L245 215.5 L245.5 216 L246 216.5 L246.5 217 L247 217.5 L247.5 218 L248 218.5 L248.5 219 L249 219.5 L249.5 220 L250 220.5 L250.5 221 L251 221.5 L251.5 222 L252 222.5 L252.5 223 L253 223.5 L253.5 224 L254.5 224 L255 224.5 L255.5 225 L256 225.5 L256 226.5 L256.5 227 L257.5 227 L258 227.5 L258 228.5 L258.5 229 L259 229.5 L259.5 230 L260 230.5 L260.5 231 L261 231.5 L261.5 232 L262 232.5 L262.5 233 L263 233.5 L263 234.5 L263.5 235 L264 235.5 L264.5 236 L265 236.5 L265 237.5 L265.5 238 L266 238.5 L266.5 239 L267 239.5 L267 240.5 L267.5 241 L268 241.5 L268.5 242 L269 242.5 L269 243.5 L269.5 244 L270 244.5 L270 245.5 L270 246.5 L270.5 247 L271 247.5 L271 248.5 L271.5 249 L272 249.5 L272 250.5 L272 251.5 L272.5 252 L273 252.5 L273 253.5 L273 254.5 L273.5 255 L274 255.5 L274 256.5 L274 257.5 L274 258.5 L274 259.5 L274.5 260 L275 260.5 L275 261.5 L275 262.5 L275 263.5 L275 264.5 L275 265.5 L275 266.5 L275 267.5 L275 268.5 L275 269.5 L275 270.5 L275 271.5 L275 272.5 L275 273.5 L275 274.5 L275 275.5 L275 276.5 L275 277.5 L275 278.5 L275 279.5 L275 280.5 L275 281.5 L275 282.5 L275 283.5 L275 284.5 L275 285.5 L275 286.5 L275 287.5 L275 288.5 L275 289.5 L275.5 290 L276 290.5 L276 291.5 L276 292.5 L276 293.5 L276 294.5 L276 295.5 L276 296.5 L276.5 297 L277 297.5 L277 298.5 L277 299.5 L277 300.5 L277 301.5 L277.5 302 L278 302.5 L278 303.5 L278 304.5 L278.5 305 L279 305.5 L279 306.5 L279.5 307 L280 307.5 L280 308.5 L280.5 309 L281 309.5 L281 310.5 L281 311.5 L281.5 312 L282 312.5 L282 313.5 L282.5 314 L283 314.5 L283.5 315 L284 315.5 L284 316.5 L284.5 317 L285 317.5 L285.5 318 L286 318.5 L286 319.5 L286.5 320 L287 320.5 L287.5 321 L288 321.5 L288.5 322 L289 322.5 L289.5 323 L290 323.5 L290.5 324 L291 324.5 L291 325.5 L291.5 326 L292 326.5 L292.5 327 L293 327.5 L293 328.5 L293.5 329 L294 329.5 L294.5 330 L295 330.5 L295 331.5 L295.5 332 L296 332.5 L296 333.5 L296 334.5 L296.5 335 L297 335.5 L297 336.5 L297 337.5 L297.5 338 L298 338.5 L298 339.5 L298 340.5 L298 341.5 L298 342.5 L298 343.5 L298 344.5 L298 345.5 L298 346.5 L298 347.5 L298 348.5 L298 349.5 L298 350.5 L298 351.5 L298 352.5 L298 353.5 L298 354.5 L298 355.5 L298 356.5 L298 357.5 L298 358.5 L298 359.5 L298 360.5 L298 361.5 L298 362.5 L298 363.5 L298 364.5 L298 365.5 L298 366.5 L298 367.5 L298 368.5 L298 369.5 L298 370.5 L298 371.5 L298 372.5 L298 373.5 L298 374.5 L298 375.5 L298 376.5 L298 377.5 L298 378.5 L298.5 379 L299.5 379 L300.5 379 L301.5 379 L302.5 379 L303.5 379 L304.5 379 L305.5 379 L306.5 379 L307.5 379 L308.5 379 L309.5 379 L310 378.5 L310 377.5 L310 376.5 L310 375.5 L310 374.5 L310 373.5 L310 372.5 L310 371.5 L310 370.5 L310 369.5 L310 368.5 L310 367.5 L310 366.5 L310 365.5 L310 364.5 L310 363.5 L310 362.5 L310 361.5 L310 360.5 L310 359.5 L310 358.5 L310 357.5 L310 356.5 L310 355.5 L310 354.5 L310 353.5 L310 352.5 L310 351.5 L310 350.5 L310 349.5 L310 348.5 L310 347.5 L309.5 347 L309 346.5 L309 345.5 L309 344.5 L309.5 344 L310.5 344 L311 344.5 L311.5 345 L312 345.5 L312.5 346 L313 346.5 L313.5 347 L314 347.5 L314.5 348 L315 348.5 L315.5 349 L316 349.5 L316.5 350 L317 350.5 L317.5 351 L318 351.5 L318.5 352 L319 352.5 L319.5 353 L320 353.5 L320.5 354 L321 354.5 L321.5 355 L322 355.5 L322.5 356 L323 356.5 L323.5 357 L324.5 357 L325 357.5 L325 358.5 L325.5 359 L326.5 359 L327 359.5 L327.5 360 L328 360.5 L328.5 361 L329 361.5 L329.5 362 L330 362.5 L330.5 363 L331 363.5 L331.5 364 L332 364.5 L332.5 365 L333 365.5 L333.5 366 L334 366.5 L334.5 367 L335 367.5 L335.5 368 L336.5 368 L337 368.5 L337.5 369 L338 369.5 L338.5 370 L339 370.5 L339.5 371 L340.5 371 L341 371.5 L341.5 372 L342.5 372 L343 372.5 L343.5 373 L344.5 373 L345 373.5 L345.5 374 L346.5 374 L347 374.5 L347.5 375 L348.5 375 L349 375.5 L349.5 376 L350.5 376 L351.5 376 L352 376.5 L352.5 377 L353.5 377 L354.5 377 L355 377.5 L355.5 378 L356.5 378 L357.5 378 L358.5 378 L359 378.5 L359.5 379 L360.5 379 L361.5 379 L362.5 379 L363.5 379 L364.5 379 L365.5 379 L366.5 379 L367.5 379 L368.5 379 L369.5 379 L370.5 379 L371.5 379 L372.5 379 L373.5 379 L374.5 379 L375.5 379 L376.5 379 L377.5 379 L378.5 379 L379.5 379 L380.5 379 L381.5 379 L382 378.5 Z M141 379.5 L141.5 379 L142.5 379 L143.5 379 L144 378.5 L144.5 378 L145.5 378 L146 377.5 L146.5 377 L147.5 377 L148 376.5 L148.5 376 L149 375.5 L149.5 375 L150.5 375 L151 374.5 L151.5 374 L152 373.5 L152 372.5 L152.5 372 L153 371.5 L153.5 371 L154 370.5 L154 369.5 L154.5 369 L155 368.5 L155 367.5 L155.5 367 L156 366.5 L156 365.5 L156.5 365 L157 364.5 L157 363.5 L157 362.5 L157 361.5 L157 360.5 L157 359.5 L157 358.5 L157 357.5 L157 356.5 L157 355.5 L157 354.5 L157 353.5 L156.5 353 L156 352.5 L156 351.5 L156 350.5 L155.5 350 L155 349.5 L155 348.5 L154.5 348 L154 347.5 L153.5 347 L153 346.5 L152.5 346 L152 345.5 L152 344.5 L151.5 344 L150.5 344 L150 343.5 L149.5 343 L149 342.5 L149 341.5 L149 340.5 L148.5 340 L148 339.5 L148 338.5 L148 337.5 L148 336.5 L148 335.5 L148 334.5 L148 333.5 L148.5 333 L149 332.5 L149 331.5 L149 330.5 L149 329.5 L149 328.5 L149 327.5 L149 326.5 L149 325.5 L149 324.5 L149 323.5 L149 322.5 L149 321.5 L149.5 321 L150 320.5 L150 319.5 L150 318.5 L150 317.5 L150 316.5 L150.5 316 L151 315.5 L151 314.5 L151 313.5 L151 312.5 L151.5 312 L152 311.5 L152 310.5 L152 309.5 L152 308.5 L152.5 308 L153 307.5 L153 306.5 L153 305.5 L153.5 305 L154 304.5 L154 303.5 L154 302.5 L154.5 302 L155 301.5 L155 300.5 L155 299.5 L155.5 299 L156 298.5 L156 297.5 L156.5 297 L157 296.5 L157 295.5 L157.5 295 L158 294.5 L158 293.5 L158.5 293 L159 292.5 L159 291.5 L159.5 291 L160 290.5 L160 289.5 L160.5 289 L161 288.5 L161 287.5 L161.5 287 L162 286.5 L162.5 286 L163 285.5 L163 284.5 L163.5 284 L164 283.5 L164.5 283 L165 282.5 L165 281.5 L165.5 281 L166 280.5 L166.5 280 L167 279.5 L167.5 279 L168 278.5 L168.5 278 L169 277.5 L169 276.5 L169.5 276 L170 275.5 L170.5 275 L171 274.5 L171.5 274 L172 273.5 L172 272.5 L172.5 272 L173 271.5 L173.5 271 L174 270.5 L174.5 270 L175 269.5 L175.5 269 L176 268.5 L176.5 268 L177 267.5 L177.5 267 L178 266.5 L178.5 266 L179 265.5 L179.5 265 L180 264.5 L180.5 264 L181.5 264 L182 263.5 L182.5 263 L183 262.5 L183.5 262 L184 261.5 L184.5 261 L185 260.5 L185.5 260 L186 259.5 L186.5 259 L187 258.5 L187.5 258 L188 257.5 L187.5 257 L187 256.5 L186.5 256 L185.5 256 L185 255.5 L184.5 255 L184 254.5 L183.5 254 L183 253.5 L182.5 253 L182 252.5 L181.5 252 L181 251.5 L180.5 251 L179.5 251 L179 250.5 L178.5 250 L178 249.5 L177.5 249 L177 248.5 L176.5 248 L176 247.5 L175.5 247 L175 246.5 L174.5 246 L174 245.5 L173.5 245 L172.5 245 L172 244.5 L171.5 244 L171 243.5 L170.5 243 L169.5 243 L169 243.5 L168.5 244 L168 244.5 L167.5 245 L167 245.5 L166.5 246 L166 246.5 L165.5 247 L165 247.5 L164.5 248 L164 248.5 L163.5 249 L163 249.5 L162.5 250 L162 250.5 L161.5 251 L161 251.5 L160.5 252 L160 252.5 L159.5 253 L159 253.5 L158.5 254 L158 254.5 L158 255.5 L157.5 256 L157 256.5 L156.5 257 L156 257.5 L155.5 258 L155 258.5 L154.5 259 L154 259.5 L153.5 260 L153 260.5 L152.5 261 L152 261.5 L151.5 262 L151 262.5 L151 263.5 L150.5 264 L150 264.5 L149.5 265 L149 265.5 L148.5 266 L148 266.5 L148 267.5 L147.5 268 L147 268.5 L146.5 269 L146 269.5 L145.5 270 L145 270.5 L145 271.5 L144.5 272 L144 272.5 L143.5 273 L143 273.5 L143 274.5 L142.5 275 L142 275.5 L142 276.5 L141.5 277 L141 277.5 L140.5 278 L140 278.5 L140 279.5 L139.5 280 L139 280.5 L139 281.5 L138.5 282 L138 282.5 L138 283.5 L137.5 284 L137 284.5 L137 285.5 L136.5 286 L136 286.5 L136 287.5 L135.5 288 L135 288.5 L135 289.5 L134.5 290 L134 290.5 L134 291.5 L134 292.5 L133.5 293 L133 293.5 L133 294.5 L132.5 295 L132 295.5 L132 296.5 L132 297.5 L131.5 298 L131 298.5 L131 299.5 L131 300.5 L131 301.5 L130.5 302 L130 302.5 L130 303.5 L130 304.5 L129.5 305 L129 305.5 L129 306.5 L129 307.5 L129 308.5 L128.5 309 L128 309.5 L128 310.5 L128 311.5 L128 312.5 L128 313.5 L128 314.5 L127.5 315 L127 315.5 L127 316.5 L127 317.5 L127 318.5 L127 319.5 L126.5 320 L126 320.5 L126 321.5 L126 322.5 L126 323.5 L126 324.5 L126 325.5 L126 326.5 L126 327.5 L126 328.5 L126 329.5 L126 330.5 L126 331.5 L126 332.5 L126 333.5 L126 334.5 L126 335.5 L126 336.5 L125.5 337 L125 337.5 L125 338.5 L125 339.5 L125 340.5 L125 341.5 L124.5 342 L124 342.5 L123.5 343 L123 343.5 L122.5 344 L122 344.5 L121.5 345 L121 345.5 L120.5 346 L120 346.5 L119.5 347 L119 347.5 L119 348.5 L118.5 349 L118 349.5 L117.5 350 L117 350.5 L117 351.5 L117 352.5 L116.5 353 L116 353.5 L116 354.5 L116 355.5 L116 356.5 L116 357.5 L116 358.5 L116 359.5 L116 360.5 L116 361.5 L116 362.5 L116 363.5 L116 364.5 L116.5 365 L117 365.5 L117 366.5 L117 367.5 L117.5 368 L118 368.5 L118 369.5 L118.5 370 L119 370.5 L119.5 371 L120 371.5 L120 372.5 L120.5 373 L121 373.5 L121.5 374 L122 374.5 L122.5 375 L123.5 375 L124 375.5 L124.5 376 L125 376.5 L125.5 377 L126.5 377 L127 377.5 L127.5 378 L128.5 378 L129 378.5 L129.5 379 L130.5 379 L131.5 379 L132.5 379 L133 379.5 L133.5 380 L134.5 380 L135.5 380 L136.5 380 L137.5 380 L138.5 380 L139.5 380 L140.5 380 L141 379.5 Z M139.5 367 L138.5 367 L137.5 367 L136.5 367 L135.5 367 L134.5 367 L133.5 367 L133 366.5 L132.5 366 L131.5 366 L131 365.5 L130.5 365 L130 364.5 L130 363.5 L129.5 363 L129 362.5 L129 361.5 L128.5 361 L128 360.5 L128 359.5 L128 358.5 L128.5 358 L129 357.5 L129 356.5 L129 355.5 L129.5 355 L130 354.5 L130 353.5 L130.5 353 L131 352.5 L131.5 352 L132.5 352 L133 351.5 L133.5 351 L134.5 351 L135.5 351 L136.5 351 L137.5 351 L138.5 351 L139 351.5 L139.5 352 L140.5 352 L141 352.5 L141.5 353 L142 353.5 L142.5 354 L143 354.5 L143 355.5 L143.5 356 L144 356.5 L144 357.5 L144 358.5 L144 359.5 L144 360.5 L144 361.5 L143.5 362 L143 362.5 L143 363.5 L142.5 364 L142 364.5 L141.5 365 L141 365.5 L140.5 366 L140 366.5 L139.5 367 Z M256 379.5 L256.5 379 L257.5 379 L258.5 379 L259 378.5 L259.5 378 L260.5 378 L261 377.5 L261.5 377 L262.5 377 L263 376.5 L263.5 376 L264.5 376 L265 375.5 L265.5 375 L266 374.5 L266.5 374 L267 373.5 L267.5 373 L268 372.5 L268 371.5 L268.5 371 L269 370.5 L269.5 370 L270 369.5 L270 368.5 L270.5 368 L271 367.5 L271 366.5 L271 365.5 L271.5 365 L272 364.5 L272 363.5 L272 362.5 L272 361.5 L272 360.5 L272 359.5 L272 358.5 L272 357.5 L272 356.5 L272 355.5 L272 354.5 L272 353.5 L271.5 353 L271 352.5 L271 351.5 L271 350.5 L270.5 350 L270 349.5 L270 348.5 L269.5 348 L269 347.5 L268.5 347 L268 346.5 L268 345.5 L267.5 345 L266.5 345 L266 344.5 L265.5 344 L265 343.5 L264.5 343 L264 342.5 L263.5 342 L263 341.5 L263 340.5 L263 339.5 L263 338.5 L263 337.5 L263 336.5 L263 335.5 L262.5 335 L262 334.5 L262.5 334 L263 333.5 L263 332.5 L262.5 332 L262 331.5 L262 330.5 L262 329.5 L262 328.5 L262 327.5 L262 326.5 L262 325.5 L262 324.5 L262 323.5 L262 322.5 L262 321.5 L262 320.5 L262 319.5 L261.5 319 L261 318.5 L261 317.5 L261 316.5 L261 315.5 L261 314.5 L261 313.5 L260.5 313 L260 312.5 L260 311.5 L260 310.5 L260 309.5 L260 308.5 L259.5 308 L259 307.5 L259 306.5 L259 305.5 L259 304.5 L258.5 304 L258 303.5 L258 302.5 L258 301.5 L257.5 301 L257 300.5 L257 299.5 L257 298.5 L256.5 298 L256 297.5 L256 296.5 L256 295.5 L255.5 295 L255 294.5 L255 293.5 L254.5 293 L254 292.5 L254 291.5 L254 290.5 L253.5 290 L253 289.5 L253 288.5 L252.5 288 L252 287.5 L252 286.5 L251.5 286 L251 285.5 L251 284.5 L250.5 284 L250 283.5 L250 282.5 L249.5 282 L249 281.5 L249 280.5 L248.5 280 L247.5 280 L247 280.5 L246.5 281 L246 281.5 L245.5 282 L245 282.5 L244.5 283 L244 283.5 L243.5 284 L242.5 284 L242 284.5 L241.5 285 L241 285.5 L240.5 286 L240 286.5 L239.5 287 L239 287.5 L238.5 288 L238 288.5 L237.5 289 L237 289.5 L236.5 290 L236 290.5 L235.5 291 L235 291.5 L234.5 292 L234 292.5 L234 293.5 L233.5 294 L233 294.5 L232.5 295 L232 295.5 L231.5 296 L231 296.5 L231.5 297 L232 297.5 L232 298.5 L232.5 299 L233 299.5 L233 300.5 L233 301.5 L233.5 302 L234 302.5 L234 303.5 L234 304.5 L234.5 305 L235 305.5 L235 306.5 L235 307.5 L235.5 308 L236 308.5 L236 309.5 L236 310.5 L236.5 311 L237 311.5 L237 312.5 L237 313.5 L237 314.5 L237.5 315 L238 315.5 L238 316.5 L238 317.5 L238 318.5 L238 319.5 L238.5 320 L239 320.5 L239 321.5 L239 322.5 L239 323.5 L239 324.5 L239 325.5 L239 326.5 L239 327.5 L239 328.5 L239 329.5 L239 330.5 L239.5 331 L240 331.5 L240 332.5 L240 333.5 L240 334.5 L240 335.5 L240 336.5 L240 337.5 L240 338.5 L240 339.5 L240 340.5 L239.5 341 L239 341.5 L239 342.5 L238.5 343 L238 343.5 L237.5 344 L237 344.5 L236.5 345 L236 345.5 L235.5 346 L235 346.5 L234.5 347 L234 347.5 L234 348.5 L233.5 349 L233 349.5 L233 350.5 L232.5 351 L232 351.5 L232 352.5 L232 353.5 L231.5 354 L231 354.5 L231 355.5 L231 356.5 L231 357.5 L231 358.5 L231 359.5 L231 360.5 L231 361.5 L231 362.5 L231 363.5 L231 364.5 L231.5 365 L232 365.5 L232 366.5 L232.5 367 L233 367.5 L233 368.5 L233.5 369 L234 369.5 L234 370.5 L234.5 371 L235 371.5 L235.5 372 L236 372.5 L236 373.5 L236.5 374 L237 374.5 L237.5 375 L238.5 375 L239 375.5 L239.5 376 L240 376.5 L240.5 377 L241 377.5 L241.5 378 L242.5 378 L243.5 378 L244 378.5 L244.5 379 L245.5 379 L246.5 379 L247.5 379 L248 379.5 L248.5 380 L249.5 380 L250.5 380 L251.5 380 L252.5 380 L253.5 380 L254.5 380 L255.5 380 L256 379.5 Z M253.5 367 L252.5 367 L251.5 367 L250.5 367 L249.5 367 L249 366.5 L248.5 366 L247.5 366 L247 365.5 L246.5 365 L246 364.5 L245.5 364 L245 363.5 L245 362.5 L244.5 362 L244 361.5 L244 360.5 L244 359.5 L244 358.5 L244 357.5 L244 356.5 L244.5 356 L245 355.5 L245 354.5 L245.5 354 L246 353.5 L246.5 353 L247 352.5 L247.5 352 L248.5 352 L249 351.5 L249.5 351 L250.5 351 L251.5 351 L252.5 351 L253.5 351 L254 351.5 L254.5 352 L255.5 352 L256 352.5 L256.5 353 L257 353.5 L257.5 354 L258 354.5 L258.5 355 L259 355.5 L259 356.5 L259.5 357 L260 357.5 L260 358.5 L260 359.5 L260 360.5 L259.5 361 L259 361.5 L259 362.5 L258.5 363 L258 363.5 L257.5 364 L257 364.5 L256.5 365 L256 365.5 L255.5 366 L254.5 366 L254 366.5 L253.5 367 Z " fill="#000000" fill-rule="evenodd" />
</svg>