<svg xmlns="http://www.w3.org/2000/svg" viewBox="0 0 390 114" width="100%" height="100%">
  <!-- Icono Vectorizado -->
  <path d="M63 77.5 L63 76.5 L63 75.5 L63 74.5 L63 73.5 L63 72.5 L63 71.5 L63 70.5 L63 69.5 L63 68.5 L63 67.5 L63 66.5 L63 65.5 L63 64.5 L63 63.5 L63 62.5 L63 61.5 L63.5 61 L64.5 61 L65.5 61 L66.5 61 L67.5 61 L68.5 61 L69 60.5 L69.5 60 L70 60.5 L70.5 61 L71 60.5 L71.5 60 L72 60.5 L72.5 61 L73 60.5 L73.5 60 L74 60.5 L74.5 61 L75 60.5 L75.5 60 L76.5 60 L77.5 60 L78.5 60 L79.5 60 L80.5 60 L81.5 60 L82.5 60 L83.5 60 L84 59.5 L84.5 59 L85.5 59 L86.5 59 L87 58.5 L87.5 58 L88.5 58 L89 57.5 L89.5 57 L90.5 57 L91 56.5 L91.5 56 L92 55.5 L92.5 55 L93 54.5 L93.5 54 L94 53.5 L94.5 53 L95 52.5 L95.5 52 L96 51.5 L96.5 51 L97 50.5 L97 49.5 L97 48.5 L97.5 48 L98 47.5 L98 46.5 L98 45.5 L98 44.5 L98.5 44 L99 43.5 L99 42.5 L99 41.5 L99 40.5 L99 39.5 L99 38.5 L99 37.5 L98.5 37 L98 36.5 L98 35.5 L98 34.5 L97.5 34 L97 33.5 L97 32.5 L96.5 32 L96 31.5 L96 30.5 L95.5 30 L95 29.5 L94.5 29 L94 28.5 L93.5 28 L93 27.5 L92.5 27 L92 26.5 L91.5 26 L91 25.5 L90.5 25 L89.5 25 L89 24.5 L88.5 24 L87.5 24 L86.5 24 L86 23.5 L85.5 23 L84.5 23 L83.5 23 L82.5 23 L81.5 23 L81 22.5 L80.5 22 L79.5 22 L78.5 22 L77.5 22 L76.5 22 L75.5 22 L74.5 22 L73.5 22 L72.5 22 L71.5 22 L70.5 22 L69.5 22 L68.5 22 L67.5 22 L66.5 22 L65.5 22 L64.5 22 L63.5 22 L62.5 22 L61.5 22 L60.5 22 L59.5 22 L58.5 22 L57.5 22 L56.5 22 L55.5 22 L54.5 22 L53.5 22 L53 22.5 L52.5 23 L52 23.5 L52 24.5 L52 25.5 L52.5 26 L53 26.5 L53 27.5 L53 28.5 L52.5 29 L52 29.5 L52.5 30 L53 30.5 L53 31.5 L53 32.5 L53 33.5 L53 34.5 L53 35.5 L53 36.5 L53 37.5 L52.5 38 L52 38.5 L51.5 39 L50.5 39 L49.5 39 L48.5 39 L48 38.5 L47.5 38 L46.5 38 L45.5 38 L45 37.5 L44.5 37 L44 36.5 L43.5 36 L43 35.5 L43 34.5 L42.5 34 L42 33.5 L42 32.5 L42 31.5 L41.5 31 L40.5 31 L40 31.5 L39.5 32 L39 32.5 L39 33.5 L39 34.5 L39.5 35 L40 35.5 L40 36.5 L40.5 37 L41 37.5 L41 38.5 L41.5 39 L42 39.5 L42.5 40 L43.5 40 L44 40.5 L44.5 41 L45 41.5 L45.5 42 L46.5 42 L47.5 42 L48.5 42 L49.5 42 L50.5 42 L51.5 42 L52 42.5 L52 43.5 L52 44.5 L51.5 45 L50.5 45 L49.5 45 L48.5 45 L47.5 45 L46.5 45 L45.5 45 L44.5 45 L43.5 45 L42.5 45 L41.5 45 L40.5 45 L39.5 45 L38.5 45 L37.5 45 L36.5 45 L36 44.5 L35.5 44 L35 43.5 L34.5 43 L34 42.5 L33.5 42 L32.5 42 L32 41.5 L31.5 41 L30.5 41 L30 41.5 L29.5 42 L28.5 42 L28 42.5 L27.5 43 L27 43.5 L27 44.5 L26.5 45 L26 45.5 L26 46.5 L26 47.5 L26.5 48 L27 48.5 L27 49.5 L27.5 50 L28.5 50 L29 50.5 L29.5 51 L30.5 51 L31.5 51 L32.5 51 L33 50.5 L33.5 50 L34 49.5 L34.5 49 L35 48.5 L35.5 48 L36.5 48 L37.5 48 L38.5 48 L39.5 48 L40.5 48 L41.5 48 L42.5 48 L43.5 48 L44.5 48 L45.5 48 L46.5 48 L47.5 48 L48.5 48 L49.5 48 L50.5 48 L51.5 48 L52 48.5 L52 49.5 L52 50.5 L51.5 51 L50.5 51 L49.5 51 L48.5 51 L47.5 51 L46.5 51 L45.5 51 L45 51.5 L44.5 52 L43.5 52 L43 52.5 L42.5 53 L42 53.5 L41.5 54 L41 54.5 L41 55.5 L40.5 56 L40 56.5 L40 57.5 L39.5 58 L39 58.5 L39 59.5 L38.5 60 L38 60.5 L37.5 61 L37 61.5 L36.5 62 L36 62.5 L35.5 63 L34.5 63 L33.5 63 L32.5 63 L32 63.5 L31.5 64 L31 64.5 L31 65.5 L31 66.5 L31.5 67 L32.5 67 L33 66.5 L33.5 66 L34.5 66 L35.5 66 L36.5 66 L37 65.5 L37.5 65 L38.5 65 L39 64.5 L39.5 64 L40 63.5 L40.5 63 L41 62.5 L41 61.5 L41.5 61 L42 60.5 L42 59.5 L42.5 59 L43 58.5 L43 57.5 L43.5 57 L44 56.5 L44.5 56 L45 55.5 L45.5 55 L46 54.5 L46.5 54 L47.5 54 L48.5 54 L49.5 54 L50.5 54 L51.5 54 L52 54.5 L52 55.5 L52 56.5 L52 57.5 L52 58.5 L52 59.5 L52 60.5 L52 61.5 L52 62.5 L52 63.5 L52 64.5 L52 65.5 L52 66.5 L52 67.5 L52 68.5 L52 69.5 L52 70.5 L52 71.5 L52 72.5 L52 73.5 L52 74.5 L52 75.5 L52 76.5 L52 77.5 L52.5 78 L53.5 78 L54.5 78 L55.5 78 L56.5 78 L57.5 78 L58.5 78 L59.5 78 L60.5 78 L61.5 78 L62.5 78 L63 77.5 Z M31.5 48 L30.5 48 L30 47.5 L29.5 47 L29 46.5 L29 45.5 L29.5 45 L30 44.5 L30.5 44 L31 44.5 L31.5 45 L32 45.5 L32 46.5 L32 47.5 L31.5 48 Z M80.5 51 L79.5 51 L78.5 51 L77.5 51 L76.5 51 L75.5 51 L74.5 51 L73.5 51 L72.5 51 L71.5 51 L70.5 51 L69.5 51 L68.5 51 L67.5 51 L66.5 51 L65.5 51 L64.5 51 L63.5 51 L63 50.5 L63 49.5 L63 48.5 L63 47.5 L63 46.5 L63 45.5 L63 44.5 L63 43.5 L63 42.5 L63 41.5 L63 40.5 L63 39.5 L63 38.5 L63 37.5 L63 36.5 L63 35.5 L63 34.5 L63 33.5 L63 32.5 L63 31.5 L63.5 31 L64.5 31 L65.5 31 L66.5 31 L67.5 31 L68.5 31 L69.5 31 L70.5 31 L71.5 31 L72.5 31 L73.5 31 L74.5 31 L75.5 31 L76.5 31 L77.5 31 L78.5 31 L79 31.5 L79.5 32 L80.5 32 L81.5 32 L82.5 32 L83 32.5 L83.5 33 L84 33.5 L84.5 34 L85.5 34 L86 34.5 L86 35.5 L86.5 36 L87 36.5 L87 37.5 L87.5 38 L88 38.5 L88 39.5 L88 40.5 L88 41.5 L88 42.5 L88 43.5 L88 44.5 L87.5 45 L87 45.5 L87 46.5 L86.5 47 L86 47.5 L85.5 48 L85 48.5 L84.5 49 L83.5 49 L83 49.5 L82.5 50 L81.5 50 L81 50.5 L80.5 51 Z M159 77.5 L159 76.5 L158.5 76 L158 75.5 L158 74.5 L157.5 74 L157 73.5 L157 72.5 L156.5 72 L156 71.5 L156 70.5 L155.5 70 L155 69.5 L155 68.5 L154.5 68 L154 67.5 L154 66.5 L153.5 66 L153 65.5 L153 64.5 L152.5 64 L152 63.5 L152 62.5 L152 61.5 L151.5 61 L151 60.5 L151 59.5 L150.5 59 L150 58.5 L150 57.5 L149.5 57 L149 56.5 L149 55.5 L148.5 55 L148 54.5 L148 53.5 L147.5 53 L147 52.5 L147 51.5 L147 50.5 L146.5 50 L146 49.5 L146 48.5 L145.5 48 L145 47.5 L144.5 47 L144 46.5 L144 45.5 L144 44.5 L143.5 44 L143 43.5 L143 42.5 L142.5 42 L142 41.5 L142 40.5 L141.5 40 L141 39.5 L141 38.5 L140.5 38 L140 37.5 L140 36.5 L139.5 36 L139 35.5 L139 34.5 L139 33.5 L138.5 33 L138 32.5 L138 31.5 L137.5 31 L137 30.5 L137 29.5 L136.5 29 L136 28.5 L136 27.5 L135.5 27 L135 26.5 L135 25.5 L134.5 25 L134 24.5 L134 23.5 L134 22.5 L133.5 22 L132.5 22 L131.5 22 L130.5 22 L129.5 22 L128.5 22 L127.5 22 L126.5 22 L125.5 22 L124.5 22 L123.5 22 L122.5 22 L122 22.5 L122 23.5 L121.5 24 L121 24.5 L121 25.5 L120.5 26 L120 26.5 L120 27.5 L119.5 28 L119 28.5 L119 29.5 L119 30.5 L118.5 31 L118 31.5 L118 32.5 L117.5 33 L117 33.5 L117 34.5 L116.5 35 L116 35.5 L116 36.5 L115.5 37 L115 37.5 L115 38.5 L115 39.5 L114.5 40 L114 40.5 L114 41.5 L113.5 42 L113 42.5 L113 43.5 L112.5 44 L112 44.5 L112 45.5 L111.5 46 L111 46.5 L111 47.5 L110.5 48 L110 48.5 L110 49.5 L110 50.5 L109.5 51 L109 51.5 L109 52.5 L108.5 53 L108 53.5 L108 54.5 L107.5 55 L107 55.5 L107 56.5 L106.5 57 L106 57.5 L106 58.5 L106 59.5 L105.5 60 L105 60.5 L105 61.5 L104.5 62 L104 62.5 L104 63.5 L103.5 64 L103 64.5 L103 65.5 L102.5 66 L102 66.5 L102 67.5 L101.5 68 L101 68.5 L101 69.5 L101 70.5 L100.5 71 L100 71.5 L100 72.5 L99.5 73 L99 73.5 L99 74.5 L98.5 75 L98 75.5 L98 76.5 L97.5 77 L97 77.5 L97.5 78 L98.5 78 L99.5 78 L100.5 78 L101.5 78 L102.5 78 L103.5 78 L104.5 78 L105.5 78 L106.5 78 L107.5 78 L108.5 78 L109 77.5 L109 76.5 L109.5 76 L110 75.5 L110 74.5 L110 73.5 L110.5 73 L111 72.5 L111 71.5 L111.5 71 L112 70.5 L112 69.5 L112 68.5 L112.5 68 L113 67.5 L113 66.5 L113.5 66 L114 65.5 L114.5 65 L115.5 65 L116.5 65 L117.5 65 L118.5 65 L119.5 65 L120.5 65 L121.5 65 L122.5 65 L123.5 65 L124.5 65 L125.5 65 L126.5 65 L127.5 65 L128.5 65 L129.5 65 L130.5 65 L131.5 65 L132.5 65 L133.5 65 L134.5 65 L135.5 65 L136.5 65 L137.5 65 L138.5 65 L139.5 65 L140.5 65 L141.5 65 L142 65.5 L142 66.5 L142.5 67 L143 67.5 L143 68.5 L143.5 69 L144 69.5 L144 70.5 L144.5 71 L145 71.5 L145 72.5 L145.5 73 L146 73.5 L146 74.5 L146.5 75 L147 75.5 L147 76.5 L147 77.5 L147.5 78 L148.5 78 L149.5 78 L150.5 78 L151.5 78 L152.5 78 L153.5 78 L154.5 78 L155.5 78 L156.5 78 L157.5 78 L158.5 78 L159 77.5 Z M136.5 56 L135.5 56 L134.5 56 L133.5 56 L132.5 56 L131.5 56 L130.5 56 L129.5 56 L128.5 56 L127.5 56 L126.5 56 L125.5 56 L124.5 56 L123.5 56 L122.5 56 L121.5 56 L120.5 56 L119.5 56 L118.5 56 L118 55.5 L118.5 55 L119 54.5 L119 53.5 L119.5 53 L120 52.5 L120 51.5 L120 50.5 L120.5 50 L121 49.5 L121 48.5 L121.5 48 L122 47.5 L122 46.5 L122.5 46 L123 45.5 L123 44.5 L123.5 44 L124 43.5 L124 42.5 L124 41.5 L124.5 41 L125 40.5 L125 39.5 L125.5 39 L126 38.5 L126 37.5 L126.5 37 L127 36.5 L127 35.5 L127.5 35 L128.5 35 L129 35.5 L129 36.5 L129 37.5 L129.5 38 L130 38.5 L130 39.5 L130.5 40 L131 40.5 L131 41.5 L131.5 42 L132 42.5 L132 43.5 L132.5 44 L133 44.5 L133 45.5 L133.5 46 L134 46.5 L134 47.5 L134 48.5 L134.5 49 L135 49.5 L135 50.5 L135.5 51 L136 51.5 L136 52.5 L136.5 53 L137 53.5 L137 54.5 L137 55.5 L136.5 56 Z M260 77.5 L260.5 77 L261.5 77 L262.5 77 L263.5 77 L264 76.5 L264.5 76 L265.5 76 L266 75.5 L266.5 75 L267.5 75 L268 74.5 L268.5 74 L269.5 74 L270 73.5 L270.5 73 L271 72.5 L271.5 72 L272.5 72 L273 71.5 L273.5 71 L274 70.5 L274.5 70 L275 69.5 L275.5 69 L276 68.5 L276.5 68 L277 67.5 L277 66.5 L277.5 66 L278 65.5 L278 64.5 L278.5 64 L279 63.5 L279.5 63 L280 62.5 L280 61.5 L280.5 61 L281 60.5 L281 59.5 L281 58.5 L281 57.5 L281.5 57 L282 56.5 L282 55.5 L282 54.5 L282 53.5 L282 52.5 L282 51.5 L282 50.5 L282 49.5 L282 48.5 L282 47.5 L282 46.5 L282 45.5 L282 44.5 L282 43.5 L282 42.5 L281.5 42 L281 41.5 L281 40.5 L281 39.5 L280.5 39 L280 38.5 L280 37.5 L279.5 37 L279 36.5 L278.5 36 L278 35.5 L278 34.5 L277.5 34 L277 33.5 L277 32.5 L276.5 32 L276 31.5 L275.5 31 L275 30.5 L274.5 30 L274 29.5 L273.5 29 L272.5 29 L272 28.5 L271.5 28 L271 27.5 L270.5 27 L269.5 27 L269 26.5 L268.5 26 L268 25.5 L267.5 25 L266.5 25 L265.5 25 L265 24.5 L264.5 24 L263.5 24 L262.5 24 L262 23.5 L261.5 23 L260.5 23 L259.5 23 L258.5 23 L257.5 23 L257 22.5 L256.5 22 L255.5 22 L254.5 22 L253.5 22 L252.5 22 L251.5 22 L250.5 22 L249.5 22 L248.5 22 L247.5 22 L246.5 22 L245.5 22 L244.5 22 L243.5 22 L242.5 22 L241.5 22 L240.5 22 L239.5 22 L238.5 22 L237.5 22 L236.5 22 L235.5 22 L234.5 22 L233.5 22 L232.5 22 L231.5 22 L230.5 22 L230 22.5 L230 23.5 L230 24.5 L230 25.5 L230 26.5 L230 27.5 L230 28.5 L230 29.5 L230 30.5 L230 31.5 L230 32.5 L230 33.5 L230 34.5 L230 35.5 L230 36.5 L230 37.5 L230 38.5 L230 39.5 L230 40.5 L230 41.5 L230 42.5 L230 43.5 L230 44.5 L230 45.5 L230 46.5 L230 47.5 L230 48.5 L230 49.5 L230 50.5 L230 51.5 L230 52.5 L230 53.5 L230 54.5 L230 55.5 L230 56.5 L230 57.5 L230 58.5 L230 59.5 L230 60.5 L230 61.5 L230 62.5 L230 63.5 L230 64.5 L230 65.5 L230 66.5 L230 67.5 L230 68.5 L230 69.5 L230 70.5 L230 71.5 L230 72.5 L230 73.5 L230 74.5 L230 75.5 L230 76.5 L230 77.5 L230.5 78 L231.5 78 L232.5 78 L233.5 78 L234.5 78 L235.5 78 L236.5 78 L237.5 78 L238.5 78 L239.5 78 L240.5 78 L241.5 78 L242.5 78 L243.5 78 L244.5 78 L245.5 78 L246.5 78 L247.5 78 L248.5 78 L249.5 78 L250.5 78 L251.5 78 L252.5 78 L253.5 78 L254.5 78 L255.5 78 L256.5 78 L257.5 78 L258.5 78 L259.5 78 L260 77.5 Z M256.5 69 L255.5 69 L254.5 69 L253.5 69 L252.5 69 L251.5 69 L250.5 69 L249.5 69 L248.5 69 L247.5 69 L246.5 69 L245.5 69 L244.5 69 L243.5 69 L242.5 69 L241.5 69 L240.5 69 L240 68.5 L240 67.5 L240 66.5 L240 65.5 L240 64.5 L240 63.5 L240 62.5 L240 61.5 L240 60.5 L240 59.5 L240 58.5 L240 57.5 L240 56.5 L240 55.5 L240 54.5 L240 53.5 L240 52.5 L240 51.5 L240 50.5 L240 49.5 L240 48.5 L240 47.5 L240 46.5 L240 45.5 L240 44.5 L240 43.5 L240 42.5 L240 41.5 L240 40.5 L240 39.5 L240 38.5 L240 37.5 L240 36.5 L240 35.5 L240 34.5 L240 33.5 L240 32.5 L240.5 32 L241 31.5 L241.5 31 L242.5 31 L243.5 31 L244.5 31 L245.5 31 L246.5 31 L247.5 31 L248.5 31 L249.5 31 L250.5 31 L251.5 31 L252.5 31 L253.5 31 L254.5 31 L255 31.5 L255.5 32 L256.5 32 L257.5 32 L258.5 32 L259 32.5 L259.5 33 L260.5 33 L261.5 33 L262 33.5 L262.5 34 L263 34.5 L263.5 35 L264.5 35 L265 35.5 L265.5 36 L266 36.5 L266.5 37 L267 37.5 L267.5 38 L268 38.5 L268 39.5 L268.5 40 L269 40.5 L269.5 41 L270 41.5 L270 42.5 L270 43.5 L270.5 44 L271 44.5 L271 45.5 L271 46.5 L271 47.5 L271 48.5 L271 49.5 L271 50.5 L271 51.5 L271 52.5 L271 53.5 L271 54.5 L271 55.5 L270.5 56 L270 56.5 L270 57.5 L270 58.5 L269.5 59 L269 59.5 L269 60.5 L268.5 61 L268 61.5 L267.5 62 L267 62.5 L266.5 63 L266 63.5 L265.5 64 L265 64.5 L264.5 65 L264 65.5 L263.5 66 L262.5 66 L262 66.5 L261.5 67 L260.5 67 L260 67.5 L259.5 68 L258.5 68 L257.5 68 L257 68.5 L256.5 69 Z M328 78.5 L328.5 78 L329.5 78 L330.5 78 L331 77.5 L331.5 77 L332.5 77 L333 76.5 L333.5 76 L334.5 76 L335 75.5 L335.5 75 L336.5 75 L337 74.5 L337.5 74 L338 73.5 L338.5 73 L339 72.5 L339.5 72 L340 71.5 L340.5 71 L341.5 71 L342 70.5 L342 69.5 L342.5 69 L343 68.5 L343.5 68 L344 67.5 L344.5 67 L345 66.5 L345 65.5 L345.5 65 L346 64.5 L346.5 64 L347 63.5 L347 62.5 L347 61.5 L347.5 61 L348 60.5 L348 59.5 L348 58.5 L348.5 58 L349 57.5 L349 56.5 L349 55.5 L349 54.5 L349.5 54 L350.5 54 L351.5 54 L352.5 54 L353.5 54 L354.5 54 L355 54.5 L355.5 55 L356 55.5 L356.5 56 L357 56.5 L357 57.5 L357.5 58 L358 58.5 L358 59.5 L358.5 60 L359 60.5 L359 61.5 L359.5 62 L360 62.5 L360.5 63 L361 63.5 L361.5 64 L362 64.5 L362.5 65 L363.5 65 L364 65.5 L364.5 66 L365.5 66 L366.5 66 L367.5 66 L368 66.5 L368.5 67 L369 66.5 L369.5 66 L370 65.5 L370 64.5 L369.5 64 L369 63.5 L368.5 63 L367.5 63 L366.5 63 L365.5 63 L365 62.5 L364.5 62 L363.5 62 L363 61.5 L362.5 61 L362 60.5 L362 59.5 L361.5 59 L361 58.5 L361 57.5 L361 56.5 L360.5 56 L360 55.5 L360 54.5 L359.5 54 L359 53.5 L358.5 53 L358 52.5 L357.5 52 L356.5 52 L356 51.5 L355.5 51 L354.5 51 L353.5 51 L352.5 51 L351.5 51 L350.5 51 L350 50.5 L350 49.5 L350 48.5 L350.5 48 L351.5 48 L352.5 48 L353.5 48 L354.5 48 L355.5 48 L356.5 48 L357.5 48 L358.5 48 L359.5 48 L360.5 48 L361.5 48 L362.5 48 L363.5 48 L364.5 48 L365 48.5 L365.5 49 L366 49.5 L366.5 50 L367 50.5 L367.5 51 L368.5 51 L369.5 51 L370.5 51 L371.5 51 L372 50.5 L372.5 50 L373 49.5 L373.5 49 L374 48.5 L374 47.5 L374.5 47 L375 46.5 L375 45.5 L374.5 45 L374 44.5 L374 43.5 L373.5 43 L373 42.5 L372.5 42 L371.5 42 L371 41.5 L370.5 41 L369.5 41 L369 41.5 L368.5 42 L367.5 42 L366.5 42 L366 42.5 L366 43.5 L365.5 44 L365 44.5 L364.5 45 L363.5 45 L362.5 45 L361.5 45 L360.5 45 L359.5 45 L358.5 45 L357.5 45 L356.5 45 L355.5 45 L354.5 45 L353.5 45 L352.5 45 L351.5 45 L350.5 45 L349.5 45 L349 44.5 L349 43.5 L349 42.5 L349.5 42 L350.5 42 L351.5 42 L352.5 42 L353.5 42 L354.5 42 L355 41.5 L355.5 41 L356.5 41 L357 40.5 L357.5 40 L358 39.5 L358.5 39 L359 38.5 L359.5 38 L360 37.5 L360.5 37 L361 36.5 L361 35.5 L361 34.5 L361.5 34 L362 33.5 L362 32.5 L361.5 32 L361 31.5 L360.5 31 L359.5 31 L359 31.5 L359 32.5 L358.5 33 L358 33.5 L358 34.5 L357.5 35 L357 35.5 L357 36.5 L356.5 37 L356 37.5 L355.5 38 L354.5 38 L353.5 38 L353 38.5 L352.5 39 L351.5 39 L350.5 39 L349.5 39 L348.5 39 L348 38.5 L347.5 38 L347 37.5 L347 36.5 L346.5 36 L346 35.5 L346 34.5 L345.5 34 L345 33.5 L344.5 33 L344 32.5 L343.5 32 L343 31.5 L342.5 31 L342 30.5 L341.5 30 L341 29.5 L340.5 29 L340 28.5 L339.5 28 L339 27.5 L338.5 27 L338 26.5 L337.5 26 L336.5 26 L336 25.5 L335.5 25 L335 24.5 L334.5 24 L333.5 24 L332.5 24 L332 23.5 L331.5 23 L330.5 23 L329.5 23 L329 22.5 L328.5 22 L327.5 22 L326.5 22 L326 21.5 L325.5 21 L324.5 21 L323.5 21 L322.5 21 L321.5 21 L320.5 21 L319.5 21 L318.5 21 L317.5 21 L316.5 21 L315.5 21 L314.5 21 L314 21.5 L313.5 22 L312.5 22 L311.5 22 L311 22.5 L310.5 23 L309.5 23 L308.5 23 L308 23.5 L307.5 24 L306.5 24 L306 24.5 L305.5 25 L304.5 25 L304 25.5 L303.5 26 L302.5 26 L302 26.5 L301.5 27 L301 27.5 L300.5 28 L300 28.5 L299.5 29 L299 29.5 L298.5 30 L298 30.5 L297.5 31 L297 31.5 L296.5 32 L296 32.5 L295.5 33 L295 33.5 L295 34.5 L294.5 35 L294 35.5 L294 36.5 L293.5 37 L293 37.5 L292.5 38 L292 38.5 L292 39.5 L292 40.5 L291.5 41 L291 41.5 L291 42.5 L291 43.5 L291 44.5 L290.5 45 L290 45.5 L290 46.5 L290 47.5 L290 48.5 L290 49.5 L290 50.5 L290 51.5 L290 52.5 L290 53.5 L290 54.5 L290.5 55 L291 55.5 L291 56.5 L291 57.5 L291 58.5 L291 59.5 L291.5 60 L292 60.5 L292 61.5 L292.5 62 L293 62.5 L293 63.5 L293.5 64 L294 64.5 L294 65.5 L294.5 66 L295 66.5 L295.5 67 L296 67.5 L296 68.5 L296.5 69 L297 69.5 L297.5 70 L298 70.5 L298.5 71 L299 71.5 L299.5 72 L300 72.5 L300.5 73 L301 73.5 L301.5 74 L302.5 74 L303 74.5 L303.5 75 L304.5 75 L305 75.5 L305.5 76 L306.5 76 L307 76.5 L307.5 77 L308.5 77 L309 77.5 L309.5 78 L310.5 78 L311.5 78 L312 78.5 L312.5 79 L313.5 79 L314.5 79 L315.5 79 L316.5 79 L317.5 79 L318.5 79 L319.5 79 L320.5 79 L321.5 79 L322.5 79 L323.5 79 L324.5 79 L325.5 79 L326.5 79 L327.5 79 L328 78.5 Z M370.5 48 L369.5 48 L369 47.5 L368.5 47 L368 46.5 L368 45.5 L368.5 45 L369.5 45 L370.5 45 L371 45.5 L371 46.5 L371 47.5 L370.5 48 Z M323.5 70 L322.5 70 L321.5 70 L320.5 70 L319.5 70 L318.5 70 L317.5 70 L316.5 70 L316 69.5 L315.5 69 L314.5 69 L313.5 69 L313 68.5 L312.5 68 L311.5 68 L311 67.5 L310.5 67 L309.5 67 L309 66.5 L308.5 66 L308 65.5 L307.5 65 L307 64.5 L306.5 64 L306 63.5 L305.5 63 L305 62.5 L304.5 62 L304 61.5 L304 60.5 L303.5 60 L303 59.5 L303 58.5 L302.5 58 L302 57.5 L302 56.5 L302 55.5 L301.5 55 L301 54.5 L301 53.5 L301 52.5 L301 51.5 L301 50.5 L301 49.5 L301 48.5 L301 47.5 L301 46.5 L301 45.5 L301.5 45 L302 44.5 L302 43.5 L302 42.5 L302.5 42 L303 41.5 L303 40.5 L303.5 40 L304 39.5 L304 38.5 L304.5 38 L305 37.5 L305.5 37 L306 36.5 L306.5 36 L307 35.5 L307.5 35 L308 34.5 L308.5 34 L309.5 34 L310 33.5 L310.5 33 L311 32.5 L311.5 32 L312.5 32 L313 31.5 L313.5 31 L314.5 31 L315.5 31 L316.5 31 L317.5 31 L318 30.5 L318.5 30 L319.5 30 L320.5 30 L321.5 30 L322 30.5 L322.5 31 L323.5 31 L324.5 31 L325.5 31 L326 31.5 L326.5 32 L327.5 32 L328 32.5 L328.5 33 L329.5 33 L330 33.5 L330.5 34 L331.5 34 L332 34.5 L332.5 35 L333 35.5 L333.5 36 L334 36.5 L334 37.5 L334.5 38 L335 38.5 L335.5 39 L336 39.5 L336 40.5 L336.5 41 L337 41.5 L337 42.5 L337.5 43 L338 43.5 L338 44.5 L338 45.5 L338 46.5 L338 47.5 L338.5 48 L339 48.5 L339 49.5 L339 50.5 L339 51.5 L339 52.5 L338.5 53 L338 53.5 L338 54.5 L338 55.5 L338 56.5 L337.5 57 L337 57.5 L337 58.5 L337 59.5 L336.5 60 L336 60.5 L335.5 61 L335 61.5 L335 62.5 L334.5 63 L334 63.5 L333.5 64 L333 64.5 L332.5 65 L332 65.5 L331.5 66 L331 66.5 L330.5 67 L329.5 67 L329 67.5 L328.5 68 L327.5 68 L327 68.5 L326.5 69 L325.5 69 L324.5 69 L324 69.5 L323.5 70 Z M228 98.5 L228.5 98 L229.5 98 L230 97.5 L230.5 97 L231 96.5 L231 95.5 L231 94.5 L231 93.5 L231 92.5 L231 91.5 L230.5 91 L230 90.5 L229.5 90 L229 89.5 L228.5 89 L227.5 89 L226.5 89 L225.5 89 L224.5 89 L223.5 89 L223 88.5 L222.5 88 L222 87.5 L221.5 87 L221 86.5 L221 85.5 L220.5 85 L219.5 85 L219 84.5 L219 83.5 L218.5 83 L218 82.5 L217.5 82 L217 81.5 L217 80.5 L217 79.5 L217 78.5 L217 77.5 L217 76.5 L217 75.5 L217 74.5 L217 73.5 L217 72.5 L217 71.5 L217 70.5 L217 69.5 L217 68.5 L217 67.5 L217 66.5 L217 65.5 L217 64.5 L217 63.5 L217 62.5 L217 61.5 L217 60.5 L217 59.5 L217 58.5 L217 57.5 L217 56.5 L217 55.5 L217 54.5 L217 53.5 L217 52.5 L217 51.5 L217 50.5 L217 49.5 L217 48.5 L217 47.5 L217 46.5 L217 45.5 L217 44.5 L217 43.5 L217 42.5 L217 41.5 L217 40.5 L217 39.5 L217 38.5 L217 37.5 L217 36.5 L217 35.5 L217 34.5 L217 33.5 L217 32.5 L217 31.5 L217 30.5 L217 29.5 L217 28.5 L217 27.5 L217 26.5 L217 25.5 L217 24.5 L217 23.5 L217 22.5 L217 21.5 L217 20.5 L217 19.5 L217 18.5 L217 17.5 L217.5 17 L218 16.5 L218.5 16 L219 15.5 L219.5 15 L220 14.5 L220.5 14 L221 13.5 L221.5 13 L222 12.5 L222.5 12 L223 11.5 L223.5 11 L224.5 11 L225 10.5 L225.5 10 L226 9.5 L225.5 9 L225 8.5 L224.5 8 L223.5 8 L222.5 8 L222 8.5 L221.5 9 L221 9.5 L220.5 10 L219.5 10 L219 10.5 L218.5 11 L218 11.5 L217.5 12 L217 12.5 L216.5 13 L216 13.5 L216 14.5 L215.5 15 L215 15.5 L214.5 16 L214 16.5 L214 17.5 L214 18.5 L214 19.5 L214 20.5 L214 21.5 L213.5 22 L212.5 22 L211.5 22 L210.5 22 L210 21.5 L210 20.5 L210 19.5 L210 18.5 L210 17.5 L210 16.5 L210 15.5 L210 14.5 L210 13.5 L210 12.5 L210 11.5 L210 10.5 L210 9.5 L210 8.5 L210 7.5 L209.5 7 L209 6.5 L208.5 6 L208 6.5 L207.5 7 L207 7.5 L207 8.5 L207 9.5 L207 10.5 L207 11.5 L207 12.5 L207 13.5 L207 14.5 L207 15.5 L207 16.5 L207 17.5 L207 18.5 L207 19.5 L207 20.5 L207 21.5 L207 22.5 L207 23.5 L207 24.5 L207 25.5 L207 26.5 L207 27.5 L207 28.5 L207 29.5 L207 30.5 L207 31.5 L207 32.5 L207 33.5 L207 34.5 L207 35.5 L207 36.5 L207 37.5 L207 38.5 L207 39.5 L206.5 40 L206 40.5 L206.5 41 L207 41.5 L206.5 42 L206 42.5 L206 43.5 L206 44.5 L206 45.5 L206 46.5 L206 47.5 L206 48.5 L206 49.5 L206 50.5 L206 51.5 L206 52.5 L206.5 53 L207 53.5 L206.5 54 L206 54.5 L206 55.5 L206 56.5 L206 57.5 L206 58.5 L205.5 59 L205 58.5 L204.5 58 L204 57.5 L204 56.5 L203.5 56 L203 55.5 L202.5 55 L202 54.5 L201.5 54 L201 53.5 L201 52.5 L200.5 52 L200 51.5 L199.5 51 L199 50.5 L198.5 50 L198 49.5 L197.5 49 L197 48.5 L197 47.5 L196.5 47 L196 46.5 L195.5 46 L195 45.5 L194.5 45 L194 44.5 L193.5 44 L193 43.5 L193 42.5 L192.5 42 L192 41.5 L191.5 41 L191 40.5 L190.5 40 L190 39.5 L189.5 39 L189 38.5 L189 37.5 L188.5 37 L188 36.5 L187.5 36 L187 35.5 L186.5 35 L186 34.5 L185.5 34 L185 33.5 L185 32.5 L184.5 32 L184 31.5 L183.5 31 L183 30.5 L182.5 30 L182 29.5 L181.5 29 L181 28.5 L181 27.5 L180.5 27 L180 26.5 L179.5 26 L179 25.5 L178.5 25 L178 24.5 L177.5 24 L177 23.5 L176.5 23 L176 22.5 L175.5 22 L174.5 22 L173.5 22 L172.5 22 L171.5 22 L170.5 22 L169.5 22 L168.5 22 L167.5 22 L167 22.5 L167 23.5 L167 24.5 L167 25.5 L167 26.5 L167 27.5 L167 28.5 L167 29.5 L167 30.5 L167 31.5 L167 32.5 L167 33.5 L167 34.5 L167 35.5 L167 36.5 L167 37.5 L167 38.5 L167 39.5 L167 40.5 L167 41.5 L166.5 42 L166 42.5 L166.5 43 L167 43.5 L166.5 44 L166 44.5 L166.5 45 L167 45.5 L167 46.5 L166.5 47 L166 47.5 L166 48.5 L166.5 49 L167 49.5 L167 50.5 L167 51.5 L167 52.5 L167 53.5 L167 54.5 L167 55.5 L167 56.5 L167 57.5 L167 58.5 L167 59.5 L167 60.5 L167 61.5 L167 62.5 L167 63.5 L167 64.5 L167 65.5 L166.5 66 L166 66.5 L166 67.5 L166 68.5 L166 69.5 L166 70.5 L166 71.5 L166.5 72 L167 72.5 L166.5 73 L166 73.5 L166 74.5 L166.5 75 L167 75.5 L167 76.5 L166.5 77 L166 77.5 L166.5 78 L167 78.5 L166.5 79 L166 79.5 L166 80.5 L166 81.5 L166 82.5 L165.5 83 L165 83.5 L165 84.5 L164.5 85 L164 85.5 L163.5 86 L163 86.5 L162.5 87 L161.5 87 L161 87.5 L160.5 88 L159.5 88 L159 88.5 L158.5 89 L157.5 89 L157 89.5 L157 90.5 L157.5 91 L158 91.5 L158.5 92 L159 91.5 L159.5 91 L160.5 91 L161.5 91 L162 90.5 L162.5 90 L163.5 90 L164 89.5 L164.5 89 L165 88.5 L165.5 88 L166 87.5 L166.5 87 L167 86.5 L167.5 86 L168 85.5 L168 84.5 L168.5 84 L169 83.5 L169 82.5 L169.5 82 L170 81.5 L170 80.5 L170 79.5 L170 78.5 L170.5 78 L171.5 78 L172.5 78 L173 78.5 L173.5 79 L174 79.5 L174 80.5 L174 81.5 L174 82.5 L174 83.5 L174 84.5 L174 85.5 L174 86.5 L174 87.5 L174 88.5 L173.5 89 L173 89.5 L172.5 90 L172 90.5 L171.5 91 L171 91.5 L171 92.5 L171 93.5 L171 94.5 L171 95.5 L171 96.5 L171.5 97 L172 97.5 L172.5 98 L173.5 98 L174 98.5 L174.5 99 L175.5 99 L176 98.5 L176.5 98 L177.5 98 L178.5 98 L179 97.5 L179 96.5 L179.5 96 L180 95.5 L180 94.5 L180 93.5 L180 92.5 L180 91.5 L179.5 91 L179 90.5 L178.5 90 L178 89.5 L177.5 89 L177 88.5 L177 87.5 L177 86.5 L177 85.5 L177 84.5 L177 83.5 L177 82.5 L177 81.5 L177 80.5 L177 79.5 L177 78.5 L177 77.5 L177 76.5 L177 75.5 L177 74.5 L177 73.5 L177 72.5 L177 71.5 L177 70.5 L177 69.5 L177 68.5 L177 67.5 L177 66.5 L177 65.5 L177 64.5 L177 63.5 L177 62.5 L177 61.5 L177 60.5 L177 59.5 L177 58.5 L177 57.5 L177 56.5 L177 55.5 L177 54.5 L177 53.5 L177 52.5 L177 51.5 L177 50.5 L177 49.5 L177 48.5 L177 47.5 L177 46.5 L177 45.5 L177 44.5 L177 43.5 L177 42.5 L177 41.5 L177 40.5 L177.5 40 L178 40.5 L178 41.5 L178.5 42 L179 42.5 L179.5 43 L180 43.5 L180.5 44 L181 44.5 L181.5 45 L182 45.5 L182 46.5 L182.5 47 L183 47.5 L183.5 48 L184 48.5 L184.5 49 L185 49.5 L185.5 50 L186 50.5 L186 51.5 L186.5 52 L187 52.5 L187.5 53 L188 53.5 L188.5 54 L189 54.5 L189.5 55 L190 55.5 L190 56.5 L190.5 57 L191 57.5 L191.5 58 L192 58.5 L192.5 59 L193 59.5 L193.5 60 L194 60.5 L194 61.5 L194.5 62 L195 62.5 L195.5 63 L196 63.5 L196.5 64 L197 64.5 L197.5 65 L198 65.5 L198 66.5 L198.5 67 L199 67.5 L199.5 68 L200 68.5 L200.5 69 L201 69.5 L201.5 70 L202 70.5 L202 71.5 L202.5 72 L203 72.5 L203.5 73 L204 73.5 L204.5 74 L205 74.5 L205.5 75 L206 75.5 L206 76.5 L206.5 77 L207 77.5 L207 78.5 L207 79.5 L207 80.5 L207 81.5 L207 82.5 L207 83.5 L207 84.5 L207 85.5 L207 86.5 L207 87.5 L207 88.5 L207 89.5 L207 90.5 L207 91.5 L207 92.5 L207.5 93 L208 93.5 L208.5 94 L209.5 94 L210 93.5 L210 92.5 L210 91.5 L210 90.5 L210 89.5 L210 88.5 L210 87.5 L210 86.5 L210 85.5 L210 84.5 L210 83.5 L210 82.5 L210 81.5 L210 80.5 L210 79.5 L210.5 79 L211 78.5 L211.5 78 L212.5 78 L213 78.5 L213.5 79 L214 79.5 L214 80.5 L214 81.5 L214 82.5 L214.5 83 L215 83.5 L215 84.5 L215.5 85 L216 85.5 L216.5 86 L217 86.5 L217.5 87 L218 87.5 L218.5 88 L219 88.5 L219.5 89 L220 89.5 L220.5 90 L221 90.5 L221.5 91 L222 91.5 L222 92.5 L222 93.5 L222 94.5 L222 95.5 L222.5 96 L223 96.5 L223.5 97 L224 97.5 L224.5 98 L225.5 98 L226 98.5 L226.5 99 L227.5 99 L228 98.5 Z M176.5 95 L175.5 95 L174.5 95 L174 94.5 L174 93.5 L174 92.5 L174.5 92 L175.5 92 L176.5 92 L177 92.5 L177 93.5 L177 94.5 L176.5 95 Z M227.5 95 L226.5 95 L225.5 95 L225 94.5 L225 93.5 L225 92.5 L225.5 92 L226.5 92 L227.5 92 L228 92.5 L228 93.5 L228 94.5 L227.5 95 Z " fill="#000000" fill-rule="evenodd" />
</svg>